<?xml version="1.0" standalone="no"?>
<!DOCTYPE svg PUBLIC "-//W3C//DTD SVG 1.1//EN" "http://www.w3.org/Graphics/SVG/1.1/DTD/svg11.dtd" >
<svg xmlns="http://www.w3.org/2000/svg">
<metadata></metadata>
<defs>
<font id="giregular" horiz-adv-x="1167" >
<font-face units-per-em="2048" ascent="1638" descent="-410" />
<missing-glyph horiz-adv-x="552" />
<glyph horiz-adv-x="0" />
<glyph unicode="&#xd;" horiz-adv-x="0" />
<glyph horiz-adv-x="0" />
<glyph horiz-adv-x="0" />
<glyph unicode=" "  horiz-adv-x="552" />
<glyph unicode="&#x09;" horiz-adv-x="552" />
<glyph unicode="&#xa0;" horiz-adv-x="552" />
<glyph unicode="!" horiz-adv-x="614" d="M188 94q0 48 36 82q37 35 84 35q49 0 84 -34q36 -35 36 -82t-36 -82q-34 -33 -84 -33t-84 33q-36 35 -36 81zM201 1536h213l-39 -1120h-135z" />
<glyph unicode="&#x22;" horiz-adv-x="751" d="M90 1536h176l-37 -516h-104zM485 1536h177l-35 -516h-105z" />
<glyph unicode="#" horiz-adv-x="1165" d="M68 434v105h227l47 356h-217v104h229l49 408l107 -14l-49 -394h325l52 408l106 -14l-49 -394h209v-104h-219l-45 -356h207v-109h-222l-53 -434l-106 14l51 420h-328l-55 -434l-109 14l54 424h-211zM403 539h328l43 356h-323z" />
<glyph unicode="$" horiz-adv-x="1208" d="M76 342h186q36 -208 320 -219v520q-98 26 -169 49q-85 28 -149 70q-147 98 -147 270q0 184 146 287q125 89 319 94v123h112v-129q234 -27 344 -182q40 -57 56 -131h-170q-21 117 -155 156q-37 12 -75 18v-492q98 -24 169 -46q86 -27 149 -68q145 -96 145 -277 q0 -193 -142 -301q-120 -91 -321 -109v-118h-112v116q-306 14 -442 205q-47 66 -64 164zM281 1061q0 -110 89 -172q71 -49 212 -86v471q-120 0 -205 -50q-96 -57 -96 -163zM694 125q116 13 203 73q96 66 96 169q0 142 -183 211q-40 16 -116 36v-489z" />
<glyph unicode="%" horiz-adv-x="1497" d="M88 1120q0 99 57 183q73 108 211 108q140 0 213 -108q58 -85 58 -183q0 -104 -62 -187q-75 -102 -209 -102t-208 102q-60 84 -60 187zM217 1143q0 -53 6 -86q6 -30 22 -60q36 -61 111 -61q74 0 111 61q29 47 29 101q0 50 -7 88q-6 32 -21 59q-14 25 -42 44q-27 18 -69 18 t-69 -18q-29 -20 -43 -44q-28 -50 -28 -102zM408 0l559 1393h147l-563 -1393h-143zM870 268q0 98 58 183q74 108 213 108q137 0 211 -108q57 -84 57 -183q0 -103 -60 -187q-73 -101 -208 -101t-209 101q-62 83 -62 187zM1001 268q0 -122 71 -167q26 -17 68 -17t67 17 q29 20 43 44q30 51 30 103q0 51 -6 84q-6 30 -22 60q-34 63 -111 63q-76 0 -112 -62q-28 -50 -28 -125z" />
<glyph unicode="&#x26;" horiz-adv-x="1411" d="M133 379q0 201 199 347q22 16 65.5 48t53.5 39q-148 171 -148 300q0 130 82 215t217 85q129 0 212 -80q85 -82 85 -209q0 -133 -160 -267q-50 -41 -82 -66l287 -367q75 92 80 98l78 99l117 -78q-29 -41 -185 -230l240 -313l-189 -4l-151 199q-102 -102 -165 -141 q-126 -79 -221 -79t-170 30t-129 84q-116 116 -116 290zM274 389q0 -103 75 -184q75 -82 179 -82q112 0 249 128q5 5 30 28.5t37 35.5l-305 392q-118 -85 -164 -131q-101 -101 -101 -187zM436 1119q0 -89 90 -184q32 -34 47 -52q14 11 65 46q33 23 62 52q66 66 66 141 q0 76 -51 119q-50 43 -114 46h-9q-56 0 -105 -38q-51 -41 -51 -130z" />
<glyph unicode="'" horiz-adv-x="354" d="M90 1536h176l-37 -516h-104z" />
<glyph unicode="(" horiz-adv-x="630" d="M123 539q0 373 101 689q57 180 136 308h140q-150 -257 -218 -648q-28 -166 -28 -351q0 -191 27 -353q28 -167 65 -287q63 -202 152 -356h-136q-65 94 -122 269q-117 362 -117 729z" />
<glyph unicode=")" horiz-adv-x="630" d="M131 1536h139q140 -227 207 -607q31 -178 31 -388q0 -209 -31 -387q-29 -167 -71 -299q-68 -213 -138 -314h-135q150 258 216 643q28 168 28 353t-28 351q-27 163 -66 289q-62 205 -152 359z" />
<glyph unicode="*" horiz-adv-x="1085" d="M158 1192l53 168l295 -156l-51 332h176l-51 -332l294 156l56 -168l-328 -57l234 -228l-144 -104l-149 289l-150 -289l-143 104l233 228z" />
<glyph unicode="+" horiz-adv-x="942" d="M78 397v117h334v336h118v-336h336v-117h-336v-336h-118v336h-334z" />
<glyph unicode="," horiz-adv-x="475" d="M102 -289l119 531h197l-230 -531h-86z" />
<glyph unicode="-" horiz-adv-x="839" d="M78 397v117h686v-117h-686z" />
<glyph unicode="." horiz-adv-x="546" d="M154 94q0 48 34 82q35 35 84 35q50 0 85 -34q36 -35 36 -82q0 -48 -37 -82q-36 -33 -84 -33q-49 0 -83 33q-35 34 -35 81z" />
<glyph unicode="/" horiz-adv-x="1101" d="M88 -412l795 1948h153l-794 -1948h-154z" />
<glyph unicode="0" horiz-adv-x="1146" d="M102 698q0 112 17 214.5t54 195t91 160t133.5 107.5t175.5 40t175.5 -40t133.5 -107.5t91 -160t54 -195t17 -214.5q0 -141 -28 -266t-83 -227.5t-148 -162.5t-212 -60t-212 60t-148 162.5t-83 227.5t-28 266zM246 727q0 -89 8 -169t30.5 -161t58 -139t94 -94.5 t134.5 -36.5q82 0 145.5 51.5t100 136t54.5 180.5t18 197q0 79 -9 154.5t-32.5 152.5t-59 134t-93 93t-129.5 36q-86 0 -151 -49.5t-100.5 -131.5t-52 -171t-16.5 -183z" />
<glyph unicode="1" horiz-adv-x="587" d="M102 1247v125l344 37v-1409h-143v1247h-201z" />
<glyph unicode="2" horiz-adv-x="1259" d="M129 0l721 727q92 92 92 225q0 130 -96 223t-228 93q-135 0 -232 -103q-88 -94 -88 -208q0 -18 1 -27h-145q0 4 -0.5 11.5t-0.5 11.5q0 186 131 319q140 143 341 143q192 0 332 -136q139 -134 139 -329q0 -190 -135 -325l-486 -482h635v-143h-981z" />
<glyph unicode="3" horiz-adv-x="1064" d="M104 287l140 47q31 -85 111 -147t175 -62q151 0 247 94q97 94 97 225q0 133 -96 228.5t-229 95.5q-136 0 -234 -98l-108 88l422 491h-459v144h750l-437 -516l62 36q202 -14 333 -140q140 -136 140 -331q0 -194 -138 -328q-61 -58 -144 -96t-176 -38q-156 0 -282 85 q-126 87 -174 222z" />
<glyph unicode="4" horiz-adv-x="1239" d="M31 285l733 1108h201l2 -961h176v-147h-176v-285h-150v285h-786zM285 432h532v805z" />
<glyph unicode="5" horiz-adv-x="1126" d="M100 283l140 45q31 -82 112 -144.5t175 -62.5q150 0 247 94q96 91 96 225q0 126 -93 225t-217 99t-212 -66l-155 70l159 625h613v-144h-504l-94 -372q102 32 194 32q95 0 178 -37t144 -96q135 -130 135 -325t-137 -335q-138 -141 -336 -141q-154 0 -276 89t-169 219z" />
<glyph unicode="6" horiz-adv-x="1048" d="M55 442q0 167 105 293l545 658h188l-426 -512l41 26q136 -6 246 -63t174.5 -161t64.5 -237q0 -196 -137 -333q-136 -136 -332 -136q-192 0 -331 137q-138 136 -138 328zM201 442q0 -131 97 -226t228 -95q132 0 227 92.5t95 222.5q0 132 -95 228t-226 96q-132 0 -230 -94 q-96 -92 -96 -224z" />
<glyph unicode="7" horiz-adv-x="1009" d="M61 1243v143h875l-612 -1386h-160l549 1243h-652z" />
<glyph unicode="8" horiz-adv-x="1077" d="M82 397q0 117 66.5 211t166.5 148q-165 135 -165 299q0 158 111.5 259t277.5 101t277.5 -101t111.5 -260q0 -162 -166 -298q99 -54 166 -147t67 -209q0 -190 -134 -307q-129 -113 -322 -113q-194 0 -323 113q-134 117 -134 304zM244 420q0 -123 86 -210t209 -87t209 87 t86 210q0 122 -86.5 205.5t-208.5 83.5t-208.5 -83.5t-86.5 -205.5zM297 1042q0 -97 72 -167t170 -70t169.5 70t71.5 167q0 98 -70.5 165t-170.5 67t-171 -67.5t-71 -164.5z" />
<glyph unicode="9" horiz-adv-x="1048" d="M55 946q0 196 138 334q135 135 331 135q195 0 332 -136q137 -135 137 -329q0 -168 -104 -293l-545 -657h-188l426 512l-41 -27q-136 6 -246 63t-175 161t-65 237zM201 956q0 -132 94.5 -227.5t225.5 -95.5q137 0 232 94.5t95 222.5q0 131 -97.5 226.5t-228.5 95.5 q-132 0 -226.5 -93t-94.5 -223z" />
<glyph unicode=":" horiz-adv-x="546" d="M154 94q0 48 34 82q35 35 84 35q50 0 85 -34q36 -35 36 -82q0 -48 -37 -82q-36 -33 -84 -33q-49 0 -83 33q-35 34 -35 81zM154 887q0 48 34 82q35 35 84 35q50 0 85 -34q36 -34 36 -82t-37 -82t-84 -34q-48 0 -83 34t-35 81z" />
<glyph unicode=";" horiz-adv-x="546" d="M84 -289l119 531h196l-229 -531h-86zM154 887q0 48 34 82q35 35 84 35q50 0 85 -34q36 -34 36 -82t-37 -82t-84 -34q-48 0 -83 34t-35 81z" />
<glyph unicode="&#x3c;" horiz-adv-x="1056" d="M92 354v146l873 432v-148l-754 -358l754 -356v-148z" />
<glyph unicode="=" horiz-adv-x="942" d="M98 207v117h686v-117h-686zM98 578v116h686v-116h-686z" />
<glyph unicode="&#x3e;" horiz-adv-x="1056" d="M92 70l754 356l-754 358v148l873 -432v-146l-873 -432v148z" />
<glyph unicode="?" horiz-adv-x="1036" d="M132 1245q18 149 119 230t271 81t277.5 -87.5t107.5 -239.5q0 -43 -17 -82.5t-44 -71.5t-59.5 -63.5t-65.5 -62t-60 -61.5t-44 -69t-17 -78v-305h-154v348q0 44 17 83t44 68t60 56t66 53t60 52.5t44 60.5t17 72q0 100 -64.5 154.5t-166.5 54.5q-99 0 -163.5 -51.5 t-77.5 -141.5h-150zM416 94q0 43 33 75t76 32q44 0 77 -31.5t33 -74.5t-33 -74t-77 -31t-76.5 31t-32.5 73z" />
<glyph unicode="@" horiz-adv-x="1128" d="M160 465q0 214 127 348q130 139 346 139q129 0 211 -69q84 -71 84 -176v-476h-107v80q-12 -46 -59 -73q-46 -27 -99 -27q-55 0 -95 20q-41 21 -72 56q-64 73 -64 178q0 91 62 158q65 69 155 69h10q105 0 162 -86q0 123 -47 167t-133 44q-88 0 -151 -25q-62 -25 -109 -73 q-94 -98 -94 -254q0 -147 111 -252q106 -100 255 -100h267v-113h-267q-215 0 -352 126q-141 130 -141 339zM563 454q0 -46 30 -84t88 -38t88 38t30 84t-30 84q-30 37 -88 37t-88 -37q-30 -38 -30 -84z" />
<glyph unicode="A" horiz-adv-x="1263" d="M20 0l613 1437l610 -1437h-156l-149 379h-612l-150 -379h-156zM379 512h507l-253 621z" />
<glyph unicode="B" horiz-adv-x="1103" d="M154 0v1393h376q306 0 398 -189q33 -67 33 -137q0 -111 -44 -188t-120 -111q122 -33 194 -132.5t72 -247.5q0 -90 -40.5 -167t-102.5 -124q-127 -97 -340 -97h-426zM297 137h324q130 0 214.5 77t84.5 202q0 113 -85 189q-82 73 -192 73h-346v-541zM297 821h274 q114 0 180 57t66 166q0 211 -287 211h-233v-434z" />
<glyph unicode="C" horiz-adv-x="1492" d="M92 694q0 153 55 281.5t146 222.5q204 213 493 213q224 0 397 -127t247 -315h-158q-112 207 -337 273q-75 22 -169 22q-106 0 -204.5 -49.5t-167.5 -120.5q-158 -164 -158 -400q0 -233 158 -397q164 -170 392 -170q163 0 291.5 85t196.5 214h158q-35 -90 -96.5 -170 t-143.5 -142t-187.5 -98t-218.5 -36q-289 0 -493 213q-201 210 -201 501z" />
<glyph unicode="D" horiz-adv-x="1327" d="M154 0v1393h364q155 0 285 -54t223 -143q95 -91 152 -218t57 -282t-57 -281.5t-152 -217.5q-93 -89 -223 -143t-285 -54h-364zM297 143h225q241 0 406 156q168 159 168 397q0 239 -168 398q-164 155 -406 155h-225v-1106z" />
<glyph unicode="E" horiz-adv-x="1134" d="M154 0v1393h827v-133h-684v-496h664v-135h-664v-496h684v-133h-827z" />
<glyph unicode="F" horiz-adv-x="1021" d="M154 0v1393h827v-133h-684v-496h664v-135h-664v-629h-143z" />
<glyph unicode="G" horiz-adv-x="1619" d="M92 701q0 154 58 284t152 224q91 91 220 150.5t273 59.5q130 0 247 -40.5t205.5 -110.5t152.5 -163t97 -200h-151q-62 159 -205 265t-332 106q-238 0 -406 -168q-167 -167 -167 -406q0 -237 167 -405q168 -170 406 -170q199 0 350 114t209 285h-565v125h725l-15 -86 q-45 -254 -248 -418q-202 -163 -456 -163q-153 0 -283 58t-224 152q-95 95 -152.5 223.5t-57.5 283.5z" />
<glyph unicode="H" horiz-adv-x="1226" d="M154 0v1393h143v-627h633v627h143v-1393h-143v623h-633v-623h-143z" />
<glyph unicode="I" horiz-adv-x="450" d="M154 0v1393h143v-1393h-143z" />
<glyph unicode="J" horiz-adv-x="747" d="M10 29v157q34 -29 93.5 -46.5t128.5 -17.5q112 0 180.5 58t68.5 164v1049h144v-1049q0 -172 -108 -268.5t-289 -96.5q-63 0 -126 13.5t-92 36.5z" />
<glyph unicode="K" horiz-adv-x="970" d="M154 0v1393h143v-654l469 654h184l-512 -697l512 -696h-184l-469 654v-654h-143z" />
<glyph unicode="L" horiz-adv-x="835" d="M154 0v1393h143v-1250h498v-143h-641z" />
<glyph unicode="M" horiz-adv-x="1603" d="M20 0l326 1437l457 -1134l457 1134l323 -1437h-145l-217 975l-418 -1028l-420 1028l-215 -975h-148z" />
<glyph unicode="N" horiz-adv-x="1232" d="M154 0v1438l782 -1059v1014h143v-1444l-782 1067v-1016h-143z" />
<glyph unicode="O" horiz-adv-x="1615" d="M92 700q0 121 34.5 228t95.5 188.5t138.5 142t168.5 100.5q128 56 278 56q120 0 227.5 -34.5t189 -95t143 -138t100.5 -168.5q57 -131 57 -279q0 -121 -35 -228t-96 -189t-139 -143t-169 -100q-128 -56 -278 -56q-235 0 -406 123.5t-253 314.5q-56 128 -56 278zM236 700 q0 -154 77 -286t209 -209.5t285 -77.5q116 0 222 45.5t183 122.5t122.5 183t45.5 222q0 153 -77.5 285t-209.5 209.5t-286 77.5q-153 0 -284.5 -77.5t-209 -209.5t-77.5 -285z" />
<glyph unicode="P" horiz-adv-x="1083" d="M154 1v1392h446q184 0 312 -117q130 -118 130 -303q0 -181 -128 -301.5t-314 -120.5h-303v-550h-143zM297 691h324q120 0 199 82t79 204q0 124 -76.5 201.5t-201.5 77.5h-324v-565z" />
<glyph unicode="Q" horiz-adv-x="1605" d="M92 694q0 153 58 283t152 224t222.5 152t282.5 58q153 0 283 -58t224 -152t152 -223.5t58 -283.5q0 -207 -98 -364.5t-252 -248.5q72 16 161 36h209v-117h-565q-79 -20 -172 -20q-153 0 -282 57.5t-223 151.5t-152 222.5t-58 282.5zM236 694q0 -153 77.5 -284.5t209 -209 t284.5 -77.5q154 0 286 77t209.5 209t77.5 285q0 154 -77 286.5t-209.5 210t-286.5 77.5q-115 0 -220.5 -46t-182.5 -123t-122.5 -183.5t-45.5 -221.5z" />
<glyph unicode="R" horiz-adv-x="1114" d="M154 0v1393h446q185 0 313.5 -120.5t128.5 -299.5q0 -171 -117 -290.5t-289 -130.5l429 -552h-193l-408 551h-167v-551h-143zM297 688h324q120 0 199 83.5t79 204.5q0 123 -77 201t-201 78h-324v-567z" />
<glyph unicode="S" horiz-adv-x="1175" d="M76 326h170q41 -222 366 -222q79 0 143 14.5t114.5 45t78 84t27.5 125.5q0 39 -13.5 72.5t-32.5 58t-56 47t-66.5 36.5t-83.5 30.5t-87 25t-95 23.5q-209 48 -317.5 142t-108.5 214q0 124 63 214t165.5 133.5t229.5 43.5q408 0 484 -303h-156q-40 180 -328 180 q-136 0 -223.5 -57.5t-87.5 -173.5q0 -38 13 -70t31.5 -56t53.5 -46t64 -36.5t79.5 -31t84.5 -25.5t92 -24q59 -15 101 -28t91.5 -32t83.5 -39.5t67.5 -49.5t53.5 -62.5t32.5 -78t12.5 -97.5q0 -99 -39.5 -177.5t-109.5 -129t-162 -77t-199 -26.5q-463 0 -536 353z" />
<glyph unicode="T" horiz-adv-x="901" d="M41 1264v133h819v-133h-338v-1260h-143v1260h-338z" />
<glyph unicode="U" horiz-adv-x="1284" d="M123 461v932h143v-953q0 -151 104 -233t273 -82q256 0 344 172q31 62 31 143v953h143v-932q0 -223 -142 -351t-376 -128q-235 0 -377.5 128t-142.5 351z" />
<glyph unicode="V" horiz-adv-x="1304" d="M20 1393h156l477 -1123l475 1123h156l-631 -1477z" />
<glyph unicode="W" horiz-adv-x="1603" d="M20 1393h148l215 -992l420 1036l418 -1036l217 992h145l-323 -1446l-457 1136l-457 -1136z" />
<glyph unicode="X" horiz-adv-x="1241" d="M41 1393h178l402 -594l401 594h176l-489 -697l489 -696h-176l-401 594l-402 -594h-176l489 694z" />
<glyph unicode="Y" horiz-adv-x="1239" d="M20 1393h185l416 -596l415 596h183l-527 -738v-655h-143v655z" />
<glyph unicode="Z" horiz-adv-x="1187" d="M51 0l826 1260h-783v133h1043l-826 -1260h791v-133h-1051z" />
<glyph unicode="[" horiz-adv-x="720" d="M201 -436v1972h370v-100h-235v-1770h235v-102h-370z" />
<glyph unicode="\" horiz-adv-x="1101" d="M88 1536h154l794 -1948h-151z" />
<glyph unicode="]" horiz-adv-x="720" d="M150 -334h235v1770h-235v100h370v-1972h-370v102z" />
<glyph unicode="^" horiz-adv-x="1198" d="M121 702l373 689h211l374 -689h-157l-322 596l-321 -596h-158z" />
<glyph unicode="_" horiz-adv-x="1198" d="M47 -180h1106v-119h-1106v119z" />
<glyph unicode="`" horiz-adv-x="380" d="M0 1829h156l184 -293h-115z" />
<glyph unicode="a" d="M92 451q0 188 124 327q128 144 314 144q188 0 315 -144q13 -14 25 -31v154h144v-901h-144v154q-12 -17 -25 -31q-127 -143 -315 -143q-187 0 -314 143q-124 139 -124 328zM236 451q0 -133 91 -230q91 -98 226 -98t226 98q91 97 91 230q0 132 -91 229q-91 98 -226 98 t-226 -98q-91 -97 -91 -229z" />
<glyph unicode="b" d="M154 0v1536h143v-789q63 83 150.5 129t189.5 46q187 0 314 -144q124 -139 124 -327q0 -189 -124 -328q-127 -143 -314 -143q-103 0 -190 45.5t-150 128.5v-154h-143zM297 451q0 -133 92.5 -230.5t224.5 -97.5t225 97.5t93 230.5t-93 230t-225 97t-224.5 -97t-92.5 -230z " />
<glyph unicode="c" horiz-adv-x="1067" d="M92 451q0 192 133 329q135 140 328 140q161 0 281.5 -98.5t160.5 -243.5h-155q-29 99 -101.5 158t-183.5 59q-141 0 -228 -102.5t-87 -241.5q0 -134 87 -236t214 -102q104 0 179 50t105 132h162q-77 -217 -293 -292q-65 -23 -153 -23q-93 0 -175.5 40t-140.5 100 q-133 139 -133 331z" />
<glyph unicode="d" d="M92 451q0 188 124 327q128 144 314 144q103 0 190 -46t150 -129v789h144v-1536h-144v154q-63 -83 -150.5 -128.5t-189.5 -45.5q-187 0 -314 143q-124 139 -124 328zM236 451q0 -133 92.5 -230.5t224.5 -97.5t224.5 97.5t92.5 230.5t-92.5 230t-224.5 97t-224.5 -97 t-92.5 -230z" />
<glyph unicode="e" horiz-adv-x="1116" d="M92 455q0 194 138 332q139 139 333 139q190 0 329 -133q142 -135 142 -322v-76h-792q2 -120 93.5 -201t227.5 -81q200 0 273 151h157q-52 -115 -163 -196.5t-245 -81.5q-216 0 -355 137q-138 137 -138 332zM244 518h639q-25 127 -106.5 204t-213.5 77q-125 0 -214.5 -77 t-104.5 -204z" />
<glyph unicode="f" horiz-adv-x="698" d="M72 768v133h182v348q0 144 68 215.5t213 71.5h102v-133h-123q-62 0 -89.5 -27.5t-27.5 -85.5v-389h240v-133h-240v-768h-143v768h-182z" />
<glyph unicode="g" horiz-adv-x="1179" d="M98 -123h146q13 -109 106.5 -184.5t208.5 -75.5q134 0 229 97.5t95 240.5v196q-59 -81 -148 -126t-190 -45q-190 0 -317 143q-124 139 -124 328q0 188 124 327q128 144 317 144q97 0 188.5 -45.5t149.5 -126.5v151h143v-946q0 -193 -137 -330t-330 -137t-330 137 q-109 109 -131 252zM248 451q0 -132 93.5 -230t223.5 -98q132 0 225 97.5t93 230.5t-93 230t-225 97q-130 0 -223.5 -97.5t-93.5 -229.5z" />
<glyph unicode="h" horiz-adv-x="1042" d="M154 0v1536h143v-790q45 77 117 125.5t168 48.5q91 0 151 -26t105 -78q82 -95 82 -253v-563h-144v563q0 95 -43 154t-129 59q-169 0 -243 -113q-64 -97 -64 -286v-377h-143z" />
<glyph unicode="i" horiz-adv-x="468" d="M143 1181q0 37 26.5 64t64.5 27t65 -27t27 -64t-27 -64t-65 -27t-64.5 27t-26.5 64zM164 0v901h143v-901h-143z" />
<glyph unicode="j" horiz-adv-x="481" d="M-51 -330q41 -37 93 -37q22 0 45 9q87 34 87 184v1075h143v-1073q0 -224 -142 -299q-51 -27 -112 -27q-66 0 -114 31v137zM156 1181q0 37 27 64t64 27t64 -27t27 -64t-27 -64t-64 -27t-64 27t-27 64z" />
<glyph unicode="k" horiz-adv-x="862" d="M154 0v1536h143v-1038l330 405h190l-371 -438l396 -465h-191l-354 432v-432h-143z" />
<glyph unicode="l" horiz-adv-x="450" d="M154 0v1536h143v-1536h-143z" />
<glyph unicode="m" horiz-adv-x="1562" d="M154 4v901h143v-143q96 164 266 164q206 0 285 -172q43 76 110.5 124t159.5 48q164 0 247 -109q75 -97 75 -250v-563h-144v563q0 141 -88 196q-29 19 -94 19q-83 0 -141.5 -52t-88.5 -128q1 -11 1 -35v-563h-144v563q0 141 -88 196q-29 19 -94 19q-67 0 -121.5 -38 t-85.5 -93q-43 -75 -55 -186v-461h-143z" />
<glyph unicode="n" horiz-adv-x="1042" d="M154 0v901h143v-155q45 77 117 125.5t168 48.5q91 0 151 -26t105 -78q82 -95 82 -253v-563h-144v563q0 95 -43 154t-129 59q-162 0 -243 -126q-64 -101 -64 -273v-377h-143z" />
<glyph unicode="o" horiz-adv-x="1126" d="M92 455q0 95 38 182t101 150t150 101t182 38t182 -38t150 -101t101 -150t38 -182q0 -127 -64 -235t-172.5 -171t-234.5 -63t-234.5 63t-172.5 171t-64 235zM236 455q0 -133 97 -229.5t230 -96.5q134 0 231 96.5t97 229.5q0 134 -97 230.5t-231 96.5t-230.5 -96.5 t-96.5 -230.5z" />
<glyph unicode="p" d="M154 -512v1413h143v-154q63 83 150.5 129t189.5 46q187 0 314 -144q124 -139 124 -327q0 -189 -124 -328q-127 -143 -314 -143q-103 0 -190 45.5t-150 128.5v-666h-143zM297 451q0 -133 92.5 -230.5t224.5 -97.5t225 97.5t93 230.5t-93 230t-225 97t-224.5 -97 t-92.5 -230z" />
<glyph unicode="q" d="M92 451q0 188 124 327q128 144 314 144q103 0 190 -46t150 -129v154h144v-1413h-144v666q-63 -83 -150.5 -128.5t-189.5 -45.5q-187 0 -314 143q-124 139 -124 328zM236 451q0 -133 92.5 -230.5t224.5 -97.5t224.5 97.5t92.5 230.5t-92.5 230t-224.5 97t-224.5 -97 t-92.5 -230z" />
<glyph unicode="r" horiz-adv-x="636" d="M154 0v901h143v-186l6 37q72 168 223 168q44 0 90 -19v-176q-50 45 -105 45q-69 0 -119 -49t-72.5 -117.5t-22.5 -142.5v-461h-143z" />
<glyph unicode="s" horiz-adv-x="823" d="M55 252h152q22 -81 73 -120.5t143 -39.5q197 0 197 147q0 85 -141 132q-27 9 -71.5 21t-77.5 21t-73 23.5t-68.5 32.5t-53.5 42.5t-38 59.5t-13 78q0 134 94 203q96 70 225 70q144 0 225 -59t108 -185h-153q-20 67 -62.5 96t-121.5 29q-69 0 -116.5 -30.5t-47.5 -89.5 q0 -58 36.5 -86t104.5 -49q11 -3 111.5 -30t145.5 -48q139 -66 139 -212q0 -140 -99.5 -212.5t-257.5 -72.5q-313 0 -360 279z" />
<glyph unicode="t" horiz-adv-x="673" d="M41 768v133h225v350h144v-350h223v-133h-223v-768h-144v768h-225z" />
<glyph unicode="u" horiz-adv-x="1042" d="M154 338v563h143v-563q0 -95 43 -154t129 -59q85 0 146 28.5t95.5 82.5t50 124.5t15.5 163.5v377h144v-901h-144v154q-102 -172 -301 -172q-150 0 -235.5 99t-85.5 257z" />
<glyph unicode="v" horiz-adv-x="870" d="M20 901h156l260 -649l258 649h156l-414 -954z" />
<glyph unicode="w" horiz-adv-x="1482" d="M20 901h160l271 -633l290 680l291 -680l271 633h159l-428 -954l-293 665l-288 -665z" />
<glyph unicode="x" horiz-adv-x="917" d="M51 0l316 453l-316 448h182l226 -346l225 346h182l-315 -450l315 -451h-182l-225 350l-226 -350h-182z" />
<glyph unicode="y" horiz-adv-x="870" d="M20 901h164l289 -608l258 608h160l-623 -1413h-159l301 659z" />
<glyph unicode="z" horiz-adv-x="931" d="M20 0l590 768h-555v133h830l-590 -768h616v-133h-891z" />
<glyph unicode="{" horiz-adv-x="778" d="M164 389v139q131 50 131 199v541q0 132 50 200t165 68h52q16 0 52 -2v-102q-38 7 -70 7q-104 0 -104 -85v-641q0 -99 -46 -158t-128 -104q39 -19 67 -36q107 -65 107 -177v-461q0 -192 129 -192q18 0 45 5v-100q-38 -2 -54 -2h-73q-99 0 -160 100q-32 53 -32 183v462 q0 101 -131 156z" />
<glyph unicode="|" horiz-adv-x="593" d="M242 -461v1946h112v-1946h-112z" />
<glyph unicode="}" horiz-adv-x="778" d="M164 -410q27 -5 46 -5q128 0 128 192v461q0 132 174 213q-85 47 -129.5 105t-44.5 157v641q0 85 -104 85q-32 0 -70 -7v102q36 2 52 2h52q115 0 165 -68t50 -200v-541q0 -149 131 -199v-139q-131 -55 -131 -156v-462q0 -136 -44 -209.5t-148 -73.5h-73q-16 0 -54 2v100z " />
<glyph unicode="~" horiz-adv-x="1077" d="M156 1370q34 63 77 106q83 83 135 83t90 -15q45 -18 73 -32q93 -46 157 -46q62 0 125 113l109 -68q-74 -109 -165 -159q-36 -19 -72 -19q-38 0 -74 15q-61 25 -71 30q-31 14 -73 31q-35 14 -82 14q-61 0 -123 -123z" />
<glyph unicode="&#xa8;" horiz-adv-x="555" d="M0 1406q0 38 26 64.5t64 26.5t65 -26.5t27 -64.5t-27 -64.5t-65 -26.5t-64 26.5t-26 64.5zM373 1406q0 38 26 64.5t64 26.5t65 -26.5t27 -64.5t-27 -64.5t-65 -26.5t-64 26.5t-26 64.5z" />
<glyph unicode="&#xa9;" horiz-adv-x="1529" d="M96 768q0 130 54 250q52 116 144 205q194 188 470 188q136 0 259 -50q122 -50 212 -138q91 -90 143 -205q54 -120 54 -250q0 -129 -54 -251q-51 -116 -143 -206q-90 -88 -212 -138q-123 -50 -259 -50q-276 0 -470 188q-92 89 -144 206q-54 122 -54 251zM227 768 q0 -216 159 -370q154 -150 378 -150t381 150q158 152 158 370q0 216 -158 368q-157 150 -381 150t-378 -150q-159 -154 -159 -368zM403 770q0 143 105 244q106 102 252 102q126 0 220 -70q67 -50 105 -128h-122q-73 90 -203 90q-100 0 -170 -70q-72 -72 -72 -168 q0 -94 72 -166q69 -69 185 -69q115 0 186 86h122q-111 -195 -323 -195q-146 0 -252 102q-105 100 -105 242z" />
<glyph unicode="&#xad;" horiz-adv-x="839" d="M78 397v117h686v-117h-686z" />
<glyph unicode="&#xae;" horiz-adv-x="1529" d="M98 768q0 265 196 455q194 188 470 188q136 0 259 -50q122 -50 212 -138q91 -90 143 -205q54 -120 54 -250q0 -129 -54 -251q-51 -116 -143 -206q-90 -88 -212 -138q-123 -50 -259 -50q-276 0 -470 188q-91 88 -143 206q-53 120 -53 251zM227 768q0 -216 159 -370 q154 -150 378 -150t381 150q158 152 158 370q0 216 -158 368q-157 150 -381 150t-378 -150q-159 -154 -159 -368zM588 446v641h190q86 0 153 -55q62 -50 62 -127q0 -41 -27 -81q-26 -38 -106 -91l164 -287h-121l-129 279h-92v-279h-94zM682 799h96q48 0 84 29q37 30 37 77 t-37 77q-38 30 -84 30h-96v-213z" />
<glyph unicode="&#xaf;" horiz-adv-x="0" />
<glyph unicode="&#xb0;" horiz-adv-x="942" d="M133 1092q0 134 98 220q95 85 240 85t240 -85q98 -86 98 -221q0 -67 -26 -125q-25 -57 -70 -97q-94 -83 -242 -83t-242 83q-96 85 -96 223zM276 1090q0 -84 31 -123q30 -37 68 -54q36 -16 95 -16q60 0 96 16q38 17 61 44q39 48 39 133q0 127 -101 175q-35 17 -94 17 q-104 0 -154 -62q-41 -52 -41 -130z" />
<glyph unicode="&#xb4;" horiz-adv-x="380" d="M41 1536l164 293h155l-204 -293h-115z" />
<glyph unicode="&#xb6;" horiz-adv-x="1064" d="M98 885q0 190 136 323q134 133 327 133h283v-1341h-88v1253h-129v-1253h-90v426q-191 28 -315 154q-124 125 -124 305z" />
<glyph unicode="&#xb8;" horiz-adv-x="501" d="M0 -473l51 106q86 -31 187 -31q140 0 149 79q3 15 3 28q0 81 -99 96q-17 3 -35 3q-22 0 -47 -3t-55 -8.5t-41 -7.5l151 334l115 2l-105 -219q4 2 53 2q76 0 125.5 -56t49.5 -136q0 -48 -19 -93q-46 -113 -198 -134q-38 -5 -71 -5q-103 0 -214 43z" />
<glyph unicode="&#xc0;" horiz-adv-x="1263" d="M20 0l613 1437l610 -1437h-156l-149 379h-612l-150 -379h-156zM350 1946h156l184 -293h-115zM379 512h507l-253 621z" />
<glyph unicode="&#xc1;" horiz-adv-x="1263" d="M20 0l613 1437l610 -1437h-156l-149 379h-612l-150 -379h-156zM379 512h507l-253 621zM575 1653l164 293h156l-205 -293h-115z" />
<glyph unicode="&#xc2;" horiz-adv-x="1263" d="M20 0l613 1437l610 -1437h-156l-149 379h-612l-150 -379h-156zM340 1653l225 293h135l226 -293h-146l-147 217l-148 -217h-145zM379 512h507l-253 621z" />
<glyph unicode="&#xc3;" horiz-adv-x="1263" d="M20 0l613 1437l610 -1437h-156l-149 379h-612l-150 -379h-156zM297 1677q0 109 48 181.5t147 72.5q46 0 81 -14.5t56.5 -35.5t41 -42.5t46 -36t59.5 -14.5q50 0 71 30t21 91h101q-1 -42 -7 -78t-19.5 -69.5t-34.5 -57t-54 -37.5t-75 -14q-48 0 -84 15t-57.5 36.5 t-41.5 42.5t-47.5 36t-63.5 15q-84 0 -88 -121h-100zM379 512h507l-253 621z" />
<glyph unicode="&#xc4;" horiz-adv-x="1263" d="M20 0l613 1437l610 -1437h-156l-149 379h-612l-150 -379h-156zM355 1744q0 38 26 64.5t64 26.5t65.5 -26.5t27.5 -64.5t-27.5 -64.5t-65.5 -26.5t-64 26.5t-26 64.5zM379 512h507l-253 621zM728 1744q0 38 26 64.5t64 26.5t65 -26.5t27 -64.5t-27 -64.5t-65 -26.5 t-64 26.5t-26 64.5z" />
<glyph unicode="&#xc5;" horiz-adv-x="1263" d="M20 0l607 1477q-78 2 -136.5 59t-58.5 135q0 79 60.5 138t140.5 59t140.5 -58t60.5 -139q0 -79 -57.5 -135.5t-137.5 -58.5l604 -1477h-156l-149 379h-612l-150 -379h-156zM379 512h506l-252 641zM545 1671q0 -35 26 -58.5t62 -23.5q37 0 62.5 23.5t25.5 58.5t-26 59.5 t-62 24.5t-62 -24.5t-26 -59.5z" />
<glyph unicode="&#xc6;" horiz-adv-x="1675" d="M31 0l653 1393h838v-148l-682 -4v-475l661 4v-147l-661 -5v-475l682 4v-147h-830v358h-346l-156 -358h-159zM399 485h293v707l-12 -84z" />
<glyph unicode="&#xc7;" horiz-adv-x="1492" d="M92 694q0 153 55 281.5t146 222.5q204 213 493 213q224 0 397 -127t247 -315h-158q-112 207 -337 273q-75 22 -169 22q-106 0 -204.5 -49.5t-167.5 -120.5q-158 -164 -158 -400q0 -233 158 -397q164 -170 392 -170q163 0 291.5 85t196.5 214h158q-44 -115 -128 -210.5 t-207 -160t-263 -74.5l-95 -199q4 2 53 2q76 0 125.5 -56t49.5 -136q0 -48 -19 -93q-57 -139 -269 -139q-103 0 -214 43l51 106q88 -32 187 -32q73 0 112.5 24.5t39.5 83.5q0 48 -35.5 73.5t-98.5 25.5q-22 0 -47 -3t-55 -8.5t-41 -7.5l144 317q-246 21 -429 211 q-201 210 -201 501z" />
<glyph unicode="&#xc8;" horiz-adv-x="1134" d="M154 0v1393h827v-133h-684v-496h664v-135h-664v-496h684v-133h-827zM285 1872h155l185 -293h-115z" />
<glyph unicode="&#xc9;" horiz-adv-x="1134" d="M154 0v1393h827v-133h-684v-496h664v-135h-664v-496h684v-133h-827zM510 1579l164 293h155l-204 -293h-115z" />
<glyph unicode="&#xca;" horiz-adv-x="1134" d="M154 0v1393h827v-133h-684v-496h664v-135h-664v-496h684v-133h-827zM274 1579l226 293h135l225 -293h-145l-148 217l-147 -217h-146z" />
<glyph unicode="&#xcb;" horiz-adv-x="1134" d="M154 0v1393h827v-133h-684v-496h664v-135h-664v-496h684v-133h-827zM290 1670q0 38 26 64.5t64 26.5t65 -26.5t27 -64.5t-27 -64.5t-65 -26.5t-64 26.5t-26 64.5zM663 1670q0 38 26 64.5t64 26.5t65 -26.5t27 -64.5t-27 -64.5t-65 -26.5t-64 26.5t-26 64.5z" />
<glyph unicode="&#xcc;" horiz-adv-x="450" d="M-57 1872h155l185 -293h-115zM154 0v1393h143v-1393h-143z" />
<glyph unicode="&#xcd;" horiz-adv-x="450" d="M154 0v1393h143v-1393h-143zM168 1579l164 293h155l-204 -293h-115z" />
<glyph unicode="&#xce;" horiz-adv-x="450" d="M-68 1579l226 293h135l225 -293h-145l-148 217l-147 -217h-146zM154 0v1393h143v-1393h-143z" />
<glyph unicode="&#xcf;" horiz-adv-x="450" d="M-52 1670q0 38 26 64.5t64 26.5t65 -26.5t27 -64.5t-27 -64.5t-65 -26.5t-64 26.5t-26 64.5zM154 0v1393h143v-1393h-143zM321 1670q0 38 26 64.5t64 26.5t65 -26.5t27 -64.5t-27 -64.5t-65 -26.5t-64 26.5t-26 64.5z" />
<glyph unicode="&#xd0;" horiz-adv-x="1327" d="M16 604v117h138v672h364q149 0 281 -53q131 -53 227 -144q95 -91 153 -220q56 -125 56 -280q0 -154 -56 -279q-58 -129 -153 -220q-97 -93 -227 -145q-129 -52 -281 -52h-364v604h-138zM297 143h225q241 0 406 156q168 159 168 397q0 239 -168 398q-164 155 -406 155 h-225v-528h405v-117h-405v-461z" />
<glyph unicode="&#xd1;" horiz-adv-x="1232" d="M154 0v1438l782 -1059v1014h143v-1444l-782 1067v-1016h-143zM309 1669q0 109 48 181.5t147 72.5q46 0 81 -14.5t56.5 -35.5t41 -42.5t46 -36t59.5 -14.5q50 0 71.5 30t21.5 91h100q-4 -256 -189 -256q-48 0 -84 15t-57.5 36.5t-41.5 42.5t-47.5 36t-63.5 15 q-84 0 -88 -121h-101z" />
<glyph unicode="&#xd2;" horiz-adv-x="1615" d="M92 700q0 121 34.5 228t95.5 188.5t138.5 142t168.5 100.5q128 56 278 56q120 0 227.5 -34.5t189 -95t143 -138t100.5 -168.5q57 -131 57 -279q0 -121 -35 -228t-96 -189t-139 -143t-169 -100q-128 -56 -278 -56q-235 0 -406 123.5t-253 314.5q-56 128 -56 278zM236 700 q0 -154 77 -286t209 -209.5t285 -77.5q116 0 222 45.5t183 122.5t122.5 183t45.5 222q0 153 -77.5 285t-209.5 209.5t-286 77.5q-153 0 -284.5 -77.5t-209 -209.5t-77.5 -285zM524 1872h156l184 -293h-114z" />
<glyph unicode="&#xd3;" horiz-adv-x="1615" d="M92 700q0 121 34.5 228t95.5 188.5t138.5 142t168.5 100.5q128 56 278 56q120 0 227.5 -34.5t189 -95t143 -138t100.5 -168.5q57 -131 57 -279q0 -121 -35 -228t-96 -189t-139 -143t-169 -100q-128 -56 -278 -56q-235 0 -406 123.5t-253 314.5q-56 128 -56 278zM236 700 q0 -154 77 -286t209 -209.5t285 -77.5q116 0 222 45.5t183 122.5t122.5 183t45.5 222q0 153 -77.5 285t-209.5 209.5t-286 77.5q-153 0 -284.5 -77.5t-209 -209.5t-77.5 -285zM750 1579l163 293h156l-205 -293h-114z" />
<glyph unicode="&#xd4;" horiz-adv-x="1615" d="M92 700q0 121 34.5 228t95.5 188.5t138.5 142t168.5 100.5q128 56 278 56q120 0 227.5 -34.5t189 -95t143 -138t100.5 -168.5q57 -131 57 -279q0 -121 -35 -228t-96 -189t-139 -143t-169 -100q-128 -56 -278 -56q-235 0 -406 123.5t-253 314.5q-56 128 -56 278zM236 700 q0 -154 77 -286t209 -209.5t285 -77.5q116 0 222 45.5t183 122.5t122.5 183t45.5 222q0 153 -77.5 285t-209.5 209.5t-286 77.5q-153 0 -284.5 -77.5t-209 -209.5t-77.5 -285zM514 1579l225 293h135l226 -293h-146l-147 217l-148 -217h-145z" />
<glyph unicode="&#xd5;" horiz-adv-x="1615" d="M92 700q0 121 34.5 228t95.5 188.5t138.5 142t168.5 100.5q128 56 278 56q120 0 227.5 -34.5t189 -95t143 -138t100.5 -168.5q57 -131 57 -279q0 -121 -35 -228t-96 -189t-139 -143t-169 -100q-128 -56 -278 -56q-235 0 -406 123.5t-253 314.5q-56 128 -56 278zM236 700 q0 -154 77 -286t209 -209.5t285 -77.5q116 0 222 45.5t183 122.5t122.5 183t45.5 222q0 153 -77.5 285t-209.5 209.5t-286 77.5q-153 0 -284.5 -77.5t-209 -209.5t-77.5 -285zM471 1604q0 109 48 181.5t147 72.5q46 0 81 -15t56.5 -36t41 -42t46 -36t59.5 -15q50 0 71 30 t21 91h101q-1 -42 -7 -78t-19.5 -69.5t-34.5 -57t-54 -37.5t-75 -14q-48 0 -84 15t-57.5 36.5t-41.5 42.5t-47.5 36t-63.5 15q-84 0 -88 -120h-100z" />
<glyph unicode="&#xd6;" horiz-adv-x="1615" d="M92 700q0 121 34.5 228t95.5 188.5t138.5 142t168.5 100.5q128 56 278 56q120 0 227.5 -34.5t189 -95t143 -138t100.5 -168.5q57 -131 57 -279q0 -121 -35 -228t-96 -189t-139 -143t-169 -100q-128 -56 -278 -56q-235 0 -406 123.5t-253 314.5q-56 128 -56 278zM236 700 q0 -154 77 -286t209 -209.5t285 -77.5q116 0 222 45.5t183 122.5t122.5 183t45.5 222q0 153 -77.5 285t-209.5 209.5t-286 77.5q-153 0 -284.5 -77.5t-209 -209.5t-77.5 -285zM529 1670q0 38 26.5 64.5t64.5 26.5t65 -26.5t27 -64.5t-27 -64.5t-65 -26.5t-64.5 26.5 t-26.5 64.5zM902 1670q0 38 26 64.5t64 26.5t65 -26.5t27 -64.5t-27 -64.5t-65 -26.5t-64 26.5t-26 64.5z" />
<glyph unicode="&#xd7;" horiz-adv-x="942" d="M152 217l235 238l-235 237l81 84l238 -237l238 237l82 -84l-236 -237l236 -238l-82 -82l-238 238l-238 -238z" />
<glyph unicode="&#xd8;" horiz-adv-x="1615" d="M92 700q0 151 56 279q58 132 154 227q98 97 227 153q128 56 278 56t278 -56q107 -46 190 -117l87 87l80 -80l-87 -87q68 -80 112 -183q57 -131 57 -279t-57 -278q-58 -133 -153 -228q-96 -96 -229 -154q-128 -56 -278 -56t-278 56q-105 46 -184 114l-91 -91l-80 80l91 91 q-73 86 -117 188q-56 128 -56 278zM236 700q0 -210 130 -365l807 805q-156 132 -366 132q-236 0 -404 -168q-167 -167 -167 -404zM446 256q154 -129 361 -129q237 0 405 168t168 405q0 205 -128 360z" />
<glyph unicode="&#xd9;" horiz-adv-x="1284" d="M123 461v932h143v-953q0 -151 104 -233t273 -82q256 0 344 172q31 62 31 143v953h143v-932q0 -223 -142 -351t-376 -128q-235 0 -377.5 128t-142.5 351zM359 1872h156l184 -293h-114z" />
<glyph unicode="&#xda;" horiz-adv-x="1284" d="M123 461v932h143v-953q0 -151 104 -233t273 -82q256 0 344 172q31 62 31 143v953h143v-932q0 -223 -142 -351t-376 -128q-235 0 -377.5 128t-142.5 351zM585 1579l164 293h155l-205 -293h-114z" />
<glyph unicode="&#xdb;" horiz-adv-x="1284" d="M123 461v932h143v-953q0 -151 104 -233t273 -82q256 0 344 172q31 62 31 143v953h143v-932q0 -223 -142 -351t-376 -128q-235 0 -377.5 128t-142.5 351zM349 1579l225 293h136l225 -293h-145l-148 217l-147 -217h-146z" />
<glyph unicode="&#xdc;" horiz-adv-x="1284" d="M123 461v932h143v-953q0 -151 104 -233t273 -82q256 0 344 172q31 62 31 143v953h143v-932q0 -223 -142 -351t-376 -128q-235 0 -377.5 128t-142.5 351zM365 1670q0 38 26 64.5t64 26.5t65 -26.5t27 -64.5t-27 -64.5t-65 -26.5t-64 26.5t-26 64.5zM737 1670q0 38 26 64.5 t64 26.5t65.5 -26.5t27.5 -64.5t-27.5 -64.5t-65.5 -26.5t-64 26.5t-26 64.5z" />
<glyph unicode="&#xdd;" horiz-adv-x="1239" d="M20 1393h185l416 -596l415 596h183l-527 -738v-655h-143v655zM562 1579l164 293h156l-205 -293h-115z" />
<glyph unicode="&#xde;" horiz-adv-x="1083" d="M154 0v1393h143v-205h303q184 0 312 -117q130 -118 130 -303q0 -183 -130 -304q-125 -118 -312 -118h-303v-346h-143zM297 485h324q120 0 198 81q80 83 80 206q0 124 -76 201q-77 78 -202 78h-324v-566z" />
<glyph unicode="&#xdf;" horiz-adv-x="1130" d="M156 0v903q0 245 83 367q97 143 328 143q155 0 268 -94q117 -96 117 -252q0 -95 -52 -165t-132 -111q121 -46 207 -141q84 -93 84 -230q0 -176 -135 -300q-130 -120 -308 -120h-135l-6 137h141q115 0 205 87q88 85 88 210q0 120 -88 196q-85 75 -205 75h-69v126h20 q97 0 163 60q71 65 71 158q0 90 -71 155q-66 60 -163 60q-98 0 -152 -36q-56 -37 -79 -94q-25 -60 -29 -133q-4 -65 -4 -149v-852h-147z" />
<glyph unicode="&#xe0;" d="M92 451q0 188 124 327q128 144 314 144q188 0 315 -144q13 -14 25 -31v154h144v-901h-144v154q-12 -17 -25 -31q-127 -143 -315 -143q-187 0 -314 143q-124 139 -124 328zM236 451q0 -133 91 -230q91 -98 226 -98t226 98q91 97 91 230q0 132 -91 229q-91 98 -226 98 t-226 -98q-91 -97 -91 -229zM248 1382h155l185 -292h-115z" />
<glyph unicode="&#xe1;" d="M92 451q0 188 124 327q128 144 314 144q188 0 315 -144q13 -14 25 -31v154h144v-901h-144v154q-12 -17 -25 -31q-127 -143 -315 -143q-187 0 -314 143q-124 139 -124 328zM236 451q0 -133 91 -230q91 -98 226 -98t226 98q91 97 91 230q0 132 -91 229q-91 98 -226 98 t-226 -98q-91 -97 -91 -229zM473 1090l164 292h156l-205 -292h-115z" />
<glyph unicode="&#xe2;" d="M92 451q0 188 124 327q128 144 314 144q188 0 315 -144q13 -14 25 -31v154h144v-901h-144v154q-12 -17 -25 -31q-127 -143 -315 -143q-187 0 -314 143q-124 139 -124 328zM236 451q0 -133 91 -230q91 -98 226 -98t226 98q91 97 91 230q0 132 -91 229q-91 98 -226 98 t-226 -98q-91 -97 -91 -229zM238 1090l225 292h135l225 -292h-145l-148 217l-147 -217h-145z" />
<glyph unicode="&#xe3;" d="M92 451q0 188 124 327q128 144 314 144q188 0 315 -144q13 -14 25 -31v154h144v-901h-144v154q-12 -17 -25 -31q-127 -143 -315 -143q-187 0 -314 143q-124 139 -124 328zM195 1114q0 110 48 182t146 72q46 0 81 -14.5t57 -36t41.5 -42.5t46 -35.5t59.5 -14.5q50 0 71 30 t21 91h100q-4 -256 -189 -256q-48 0 -84 15t-57.5 36t-41.5 42.5t-47.5 36.5t-63.5 15q-84 0 -88 -121h-100zM236 451q0 -133 91 -230q91 -98 226 -98t226 98q91 97 91 230q0 132 -91 229q-91 98 -226 98t-226 -98q-91 -97 -91 -229z" />
<glyph unicode="&#xe4;" d="M92 451q0 188 124 327q128 144 314 144q188 0 315 -144q13 -14 25 -31v154h144v-901h-144v154q-12 -17 -25 -31q-127 -143 -315 -143q-187 0 -314 143q-124 139 -124 328zM236 451q0 -133 91 -230q91 -98 226 -98t226 98q91 97 91 230q0 132 -91 229q-91 98 -226 98 t-226 -98q-91 -97 -91 -229zM253 1181q0 38 26 64.5t64 26.5t65 -26.5t27 -64.5t-27 -64.5t-65 -26.5t-64 26.5t-26 64.5zM626 1181q0 38 26 64.5t64 26.5t65 -26.5t27 -64.5t-27 -64.5t-65 -26.5t-64 26.5t-26 64.5z" />
<glyph unicode="&#xe5;" d="M92 451q0 188 124 327q128 144 314 144q188 0 315 -144q13 -14 25 -31v154h144v-901h-144v154q-12 -17 -25 -31q-127 -143 -315 -143q-187 0 -314 143q-124 139 -124 328zM236 451q0 -133 91 -230q91 -98 226 -98t226 98q91 97 91 230q0 132 -91 229q-91 98 -226 98 t-226 -98q-91 -97 -91 -229zM330 1284q0 80 59.5 138.5t140.5 58.5t141 -58t60 -139q0 -80 -59 -137t-142 -57q-80 0 -140 57t-60 137zM442 1285q0 -35 26.5 -59t62.5 -24t61.5 24t25.5 59q0 34 -26 58.5t-62 24.5t-62 -24.5t-26 -58.5z" />
<glyph unicode="&#xe6;" horiz-adv-x="1775" d="M92 270q0 101 55 174t140 109h454v51q0 92 -65 141.5t-179 49.5q-58 0 -125 -35t-96 -105l-131 56q46 111 148 161t208 50q122 0 212.5 -43t134.5 -125q62 75 155 123.5t202 48.5q196 0 336 -133q142 -135 142 -322v-76h-792q20 -111 110.5 -188.5t210.5 -77.5 q84 0 153.5 38t113.5 97h164q-51 -116 -163 -197t-249 -81q-238 0 -379 166q-130 -116 -338 -159q-61 -13 -124 -13q-135 0 -216.5 79.5t-81.5 210.5zM236 289q0 -91 49 -131.5t145 -40.5q99 0 197.5 36.5t165.5 90.5q-43 83 -52 192v2h-403q-102 -54 -102 -149zM893 528 h639q-26 108 -112.5 181t-206.5 73t-207 -73t-113 -181z" />
<glyph unicode="&#xe7;" horiz-adv-x="1067" d="M92 451q0 192 133 329q135 140 328 140q161 0 281.5 -98.5t160.5 -243.5h-155q-29 99 -101.5 158t-183.5 59q-141 0 -228 -102.5t-87 -241.5q0 -134 87 -236t214 -102q104 0 179 50t105 132h162q-77 -217 -293 -292q-52 -18 -105 -22l-95 -199q4 2 52 2q77 0 126.5 -56 t49.5 -136q0 -45 -20 -93q-57 -139 -269 -139q-103 0 -214 43l51 106q88 -32 187 -32q73 0 112.5 24.5t39.5 83.5q0 48 -35.5 73.5t-97.5 25.5q-22 0 -47 -3t-56 -8.5t-41 -7.5l145 320q-166 27 -275.5 160t-109.5 306z" />
<glyph unicode="&#xe8;" horiz-adv-x="1116" d="M92 455q0 194 138 332q139 139 333 139q190 0 329 -133q142 -135 142 -322v-76h-792q2 -120 93.5 -201t227.5 -81q200 0 273 151h157q-52 -115 -163 -196.5t-245 -81.5q-216 0 -355 137q-138 137 -138 332zM244 518h639q-25 127 -106.5 204t-213.5 77q-125 0 -214.5 -77 t-104.5 -204zM281 1382h155l185 -292h-115z" />
<glyph unicode="&#xe9;" horiz-adv-x="1116" d="M92 455q0 194 138 332q139 139 333 139q190 0 329 -133q142 -135 142 -322v-76h-792q2 -120 93.5 -201t227.5 -81q200 0 273 151h157q-52 -115 -163 -196.5t-245 -81.5q-216 0 -355 137q-138 137 -138 332zM244 518h639q-25 127 -106.5 204t-213.5 77q-125 0 -214.5 -77 t-104.5 -204zM506 1090l164 292h155l-204 -292h-115z" />
<glyph unicode="&#xea;" horiz-adv-x="1116" d="M92 455q0 194 138 332q139 139 333 139q190 0 329 -133q142 -135 142 -322v-76h-792q2 -120 93.5 -201t227.5 -81q200 0 273 151h157q-52 -115 -163 -196.5t-245 -81.5q-216 0 -355 137q-138 137 -138 332zM244 518h639q-25 127 -106.5 204t-213.5 77q-125 0 -214.5 -77 t-104.5 -204zM270 1090l226 292h135l225 -292h-145l-148 217l-147 -217h-146z" />
<glyph unicode="&#xeb;" horiz-adv-x="1116" d="M92 455q0 194 138 332q139 139 333 139q190 0 329 -133q142 -135 142 -322v-76h-792q2 -120 93.5 -201t227.5 -81q200 0 273 151h157q-52 -115 -163 -196.5t-245 -81.5q-216 0 -355 137q-138 137 -138 332zM244 518h639q-25 127 -106.5 204t-213.5 77q-125 0 -214.5 -77 t-104.5 -204zM286 1181q0 38 26 64.5t64 26.5t65 -26.5t27 -64.5t-27 -64.5t-65 -26.5t-64 26.5t-26 64.5zM658 1181q0 38 26.5 64.5t64.5 26.5t65 -26.5t27 -64.5t-27 -64.5t-65 -26.5t-64.5 26.5t-26.5 64.5z" />
<glyph unicode="&#xec;" horiz-adv-x="468" d="M-47 1382h156l184 -292h-115zM164 0v901h143v-901h-143z" />
<glyph unicode="&#xed;" horiz-adv-x="468" d="M164 0v901h143v-901h-143zM178 1090l164 292h156l-205 -292h-115z" />
<glyph unicode="&#xee;" horiz-adv-x="468" d="M-57 1090l225 292h135l225 -292h-145l-147 217l-148 -217h-145zM164 0v901h143v-901h-143z" />
<glyph unicode="&#xef;" horiz-adv-x="468" d="M-42 1181q0 38 26 64.5t64 26.5t65 -26.5t27 -64.5t-27 -64.5t-65 -26.5t-64 26.5t-26 64.5zM164 0v901h143v-901h-143zM331 1181q0 38 26 64.5t64 26.5t65 -26.5t27 -64.5t-27 -64.5t-65 -26.5t-64 26.5t-26 64.5z" />
<glyph unicode="&#xf0;" d="M92 451q0 188 124 327q128 144 314 144q188 0 315 -144q13 -14 25 -31v371h-409v117h409v301h144v-301h133v-117h-133v-1118h-144v154q-12 -17 -25 -31q-127 -143 -315 -143q-187 0 -314 143q-124 139 -124 328zM236 451q0 -133 91 -230q91 -98 226 -98t226 98 q91 97 91 230q0 132 -91 229q-91 98 -226 98t-226 -98q-91 -97 -91 -229z" />
<glyph unicode="&#xf1;" horiz-adv-x="1042" d="M154 0v901h143v-155q45 77 117 125.5t168 48.5q91 0 151 -26t105 -78q82 -95 82 -253v-563h-144v563q0 95 -43 154t-129 59q-162 0 -243 -126q-64 -101 -64 -273v-377h-143zM201 1114q0 110 48 182t146 72q46 0 81 -14.5t57 -36t41.5 -42.5t46 -35.5t59.5 -14.5 q50 0 71 30t21 91h100q-4 -256 -189 -256q-48 0 -84 15t-57.5 36t-41.5 42.5t-47.5 36.5t-63.5 15q-84 0 -88 -121h-100z" />
<glyph unicode="&#xf2;" horiz-adv-x="1126" d="M92 455q0 95 38 182t101 150t150 101t182 38t182 -38t150 -101t101 -150t38 -182q0 -127 -64 -235t-172.5 -171t-234.5 -63t-234.5 63t-172.5 171t-64 235zM236 455q0 -133 97 -229.5t230 -96.5q134 0 231 96.5t97 229.5q0 134 -97 230.5t-231 96.5t-230.5 -96.5 t-96.5 -230.5zM281 1382h155l185 -292h-115z" />
<glyph unicode="&#xf3;" horiz-adv-x="1126" d="M92 455q0 95 38 182t101 150t150 101t182 38t182 -38t150 -101t101 -150t38 -182q0 -127 -64 -235t-172.5 -171t-234.5 -63t-234.5 63t-172.5 171t-64 235zM236 455q0 -133 97 -229.5t230 -96.5q134 0 231 96.5t97 229.5q0 134 -97 230.5t-231 96.5t-230.5 -96.5 t-96.5 -230.5zM506 1090l164 292h155l-204 -292h-115z" />
<glyph unicode="&#xf4;" horiz-adv-x="1126" d="M92 455q0 95 38 182t101 150t150 101t182 38t182 -38t150 -101t101 -150t38 -182q0 -127 -64 -235t-172.5 -171t-234.5 -63t-234.5 63t-172.5 171t-64 235zM236 455q0 -133 97 -229.5t230 -96.5q134 0 231 96.5t97 229.5q0 134 -97 230.5t-231 96.5t-230.5 -96.5 t-96.5 -230.5zM270 1090l226 292h135l225 -292h-145l-148 217l-147 -217h-146z" />
<glyph unicode="&#xf5;" horiz-adv-x="1126" d="M92 455q0 95 38 182t101 150t150 101t182 38t182 -38t150 -101t101 -150t38 -182q0 -127 -64 -235t-172.5 -171t-234.5 -63t-234.5 63t-172.5 171t-64 235zM227 1114q0 109 48 181.5t147 72.5q46 0 81 -14.5t57 -36t41.5 -42.5t46 -35.5t59.5 -14.5q50 0 71 30t21 91h100 q-4 -256 -189 -256q-48 0 -84 15t-57.5 36t-41.5 42.5t-47.5 36.5t-63.5 15q-84 0 -88 -121h-101zM236 455q0 -133 97 -229.5t230 -96.5q134 0 231 96.5t97 229.5q0 134 -97 230.5t-231 96.5t-230.5 -96.5t-96.5 -230.5z" />
<glyph unicode="&#xf6;" horiz-adv-x="1126" d="M92 455q0 95 38 182t101 150t150 101t182 38t182 -38t150 -101t101 -150t38 -182q0 -127 -64 -235t-172.5 -171t-234.5 -63t-234.5 63t-172.5 171t-64 235zM236 455q0 -133 97 -229.5t230 -96.5q134 0 231 96.5t97 229.5q0 134 -97 230.5t-231 96.5t-230.5 -96.5 t-96.5 -230.5zM286 1181q0 38 26 64.5t64 26.5t65 -26.5t27 -64.5t-27 -64.5t-65 -26.5t-64 26.5t-26 64.5zM658 1181q0 38 26.5 64.5t64.5 26.5t65 -26.5t27 -64.5t-27 -64.5t-65 -26.5t-64.5 26.5t-26.5 64.5z" />
<glyph unicode="&#xf7;" horiz-adv-x="839" d="M78 397v117h686v-117h-686zM322 117q0 48 32 81t80 33t81 -33q34 -34 34 -81t-34 -80q-35 -33 -81 -33q-47 0 -80 33q-32 32 -32 80zM322 780q0 48 32 81q33 34 80 34t81 -34t34 -81t-34 -80q-33 -32 -81 -32t-80 32t-32 80z" />
<glyph unicode="&#xf8;" horiz-adv-x="1126" d="M88 55l107 107q-103 126 -103 293q0 194 138 332q139 139 333 139q166 0 292 -102l101 102l80 -80l-101 -102q99 -124 99 -289q0 -195 -138 -332q-140 -137 -333 -137q-164 0 -288 97l-107 -108zM236 455q0 -108 61 -190l456 457q-83 60 -190 60q-135 0 -231 -96 t-96 -231zM378 186q81 -57 185 -57q136 0 232 96t96 230q0 107 -58 187z" />
<glyph unicode="&#xf9;" horiz-adv-x="1042" d="M154 338v563h143v-563q0 -95 43 -154t129 -59q85 0 146 28.5t95.5 82.5t50 124.5t15.5 163.5v377h144v-901h-144v154q-102 -172 -301 -172q-150 0 -235.5 99t-85.5 257zM258 1382h156l184 -292h-115z" />
<glyph unicode="&#xfa;" horiz-adv-x="1042" d="M154 338v563h143v-563q0 -95 43 -154t129 -59q85 0 146 28.5t95.5 82.5t50 124.5t15.5 163.5v377h144v-901h-144v154q-102 -172 -301 -172q-150 0 -235.5 99t-85.5 257zM463 1090l164 292h155l-204 -292h-115z" />
<glyph unicode="&#xfb;" horiz-adv-x="1042" d="M154 338v563h143v-563q0 -95 43 -154t129 -59q85 0 146 28.5t95.5 82.5t50 124.5t15.5 163.5v377h144v-901h-144v154q-102 -172 -301 -172q-150 0 -235.5 99t-85.5 257zM248 1090l225 292h135l226 -292h-146l-147 217l-148 -217h-145z" />
<glyph unicode="&#xfc;" horiz-adv-x="1042" d="M154 338v563h143v-563q0 -95 43 -154t129 -59q85 0 146 28.5t95.5 82.5t50 124.5t15.5 163.5v377h144v-901h-144v154q-102 -172 -301 -172q-150 0 -235.5 99t-85.5 257zM265 1181q0 38 26 64.5t64 26.5t65 -26.5t27 -64.5t-27 -64.5t-65 -26.5t-64 26.5t-26 64.5z M638 1181q0 38 26 64.5t64 26.5t65 -26.5t27 -64.5t-27 -64.5t-65 -26.5t-64 26.5t-26 64.5z" />
<glyph unicode="&#xfd;" horiz-adv-x="870" d="M20 901h164l289 -608l258 608h160l-623 -1413h-159l301 659zM398 1090l164 292h156l-205 -292h-115z" />
<glyph unicode="&#xfe;" d="M154 -512v2048h143v-789q8 11 26 31q127 144 314 144t314 -144q124 -139 124 -327q0 -189 -124 -328q-127 -143 -314 -143q-183 0 -314 143q-18 20 -26 31v-666h-143zM297 451q0 -133 91 -230q91 -98 226 -98q136 0 227 98q91 97 91 230q0 132 -91 229q-91 98 -227 98 q-135 0 -226 -98q-91 -97 -91 -229z" />
<glyph unicode="&#xff;" horiz-adv-x="870" d="M20 901h164l289 -604l258 604h160l-623 -1413h-174l303 659zM162 1150q0 38 25 64q25 27 65 27q38 0 65 -27t27 -64q0 -38 -27 -65q-26 -26 -65 -26q-40 0 -65 26t-25 65zM535 1150q0 38 25 64q26 27 65 27q38 0 65 -27t27 -64q0 -38 -27 -65q-26 -26 -65 -26 q-40 0 -65 26t-25 65z" />
<glyph unicode="&#x152;" horiz-adv-x="2043" d="M154 696q0 155 56 280q59 131 152 220q95 90 228 144q132 53 280 53h1049v-133h-684v-495h663v-135h-663v-496h684v-133h-684v-1h-365q-151 0 -280 52q-131 53 -228 145q-93 89 -152 220q-56 125 -56 279zM293 696q0 -238 168 -397q165 -156 405 -156h226v1106h-226 q-241 0 -405 -155q-168 -159 -168 -398z" />
<glyph unicode="&#x153;" horiz-adv-x="1923" d="M92 455q0 194 138 332q139 139 333 139q123 0 229 -59t171 -160q65 103 171 161q107 58 213 58q107 0 193 -36q88 -37 151 -97q140 -133 140 -322v-76h-793q21 -114 113 -190t211 -76q78 0 148 36q72 37 118 99h164q-57 -129 -174 -204q-115 -74 -248 -74q-131 0 -236 57 t-171 162q-67 -103 -171 -161t-217 -58q-111 0 -195 37q-86 38 -150 100q-138 137 -138 332zM236 455q0 -134 96 -230t231 -96q136 0 232 96t96 230q0 135 -96 231t-232 96q-135 0 -231 -96t-96 -231zM1042 528h639q-29 114 -115 184t-204 70q-116 0 -205 -70t-115 -184z " />
<glyph unicode="&#x2c6;" horiz-adv-x="585" d="M0 1245l225 293h135l226 -293h-146l-147 217l-148 -217h-145z" />
<glyph unicode="&#x2dc;" horiz-adv-x="671" d="M0 1106q0 109 48 181.5t147 72.5q46 0 81 -14.5t56.5 -36t41 -42.5t46 -35.5t59.5 -14.5q50 0 71 29.5t21 90.5h101q-1 -42 -7 -78t-19.5 -69.5t-34.5 -57t-54 -37.5t-75 -14q-48 0 -84 15t-57.5 36.5t-41.5 43t-47.5 36.5t-63.5 15q-84 0 -88 -121h-100z" />
<glyph unicode="&#x2000;" horiz-adv-x="973" />
<glyph unicode="&#x2001;" horiz-adv-x="1946" />
<glyph unicode="&#x2002;" horiz-adv-x="973" />
<glyph unicode="&#x2003;" horiz-adv-x="1946" />
<glyph unicode="&#x2004;" horiz-adv-x="648" />
<glyph unicode="&#x2005;" horiz-adv-x="486" />
<glyph unicode="&#x2006;" horiz-adv-x="324" />
<glyph unicode="&#x2007;" horiz-adv-x="324" />
<glyph unicode="&#x2008;" horiz-adv-x="243" />
<glyph unicode="&#x2009;" horiz-adv-x="389" />
<glyph unicode="&#x200a;" horiz-adv-x="108" />
<glyph unicode="&#x2010;" horiz-adv-x="839" d="M78 397v117h686v-117h-686z" />
<glyph unicode="&#x2011;" horiz-adv-x="839" d="M78 397v117h686v-117h-686z" />
<glyph unicode="&#x2012;" horiz-adv-x="839" d="M78 397v117h686v-117h-686z" />
<glyph unicode="&#x2013;" horiz-adv-x="798" d="M47 369v118h707v-118h-707z" />
<glyph unicode="&#x2014;" horiz-adv-x="1411" d="M47 369v118h1319v-118h-1319z" />
<glyph unicode="&#x2018;" horiz-adv-x="417" d="M51 1006l230 530h86l-119 -530h-197z" />
<glyph unicode="&#x2019;" horiz-adv-x="417" d="M51 1006l119 530h197l-230 -530h-86z" />
<glyph unicode="&#x201c;" horiz-adv-x="739" d="M51 1006l230 530h86l-119 -530h-197zM373 1006l229 530h86l-119 -530h-196z" />
<glyph unicode="&#x201d;" horiz-adv-x="739" d="M51 1006l119 530h197l-230 -530h-86zM373 1006l119 530h196l-229 -530h-86z" />
<glyph unicode="&#x2022;" horiz-adv-x="614" d="M74 700q0 97 68 165q69 69 165 69t165 -69t69 -165q0 -95 -69 -164t-165 -69t-165 69q-68 68 -68 164z" />
<glyph unicode="&#x2026;" horiz-adv-x="1366" d="M154 94q0 48 34 82q35 35 84 35q50 0 85 -34q36 -35 36 -82q0 -48 -37 -82q-36 -33 -84 -33q-49 0 -83 33q-35 34 -35 81zM563 94q0 47 35 82t84 35q50 0 85 -34q36 -35 36 -82q0 -48 -37 -82q-36 -33 -84 -33q-49 0 -83 33q-36 35 -36 81zM973 94q0 47 35 82t84 35 q50 0 85 -34t35 -82q0 -49 -36 -82t-84 -33q-49 0 -83 33q-36 35 -36 81z" />
<glyph unicode="&#x202f;" horiz-adv-x="389" />
<glyph unicode="&#x205f;" horiz-adv-x="486" />
<glyph unicode="&#x2122;" horiz-adv-x="1595" d="M49 1294v99h543v-99h-215v-602h-115v602h-213zM608 692l137 701h156l176 -572l176 572h156l137 -701h-131l-104 588l-172 -588h-123l-174 588l-103 -588h-131z" />
<glyph unicode="&#x25fc;" horiz-adv-x="901" d="M0 0v901h901v-901h-901z" />
<glyph unicode="&#xfb01;" d="M72 768v133h182v348q0 144 68 215.5t213 71.5h102v-133h-123q-62 0 -89.5 -27.5t-27.5 -85.5v-389h609v-901h-144v768h-465v-768h-143v768h-182zM842 1181q0 37 27 64t64 27t64 -27t27 -64t-27 -64t-64 -27t-64 27t-27 64z" />
<glyph unicode="&#xfb02;" horiz-adv-x="1148" d="M72 768v133h182v348q0 144 68 215.5t213 71.5h102v-133h-123q-62 0 -89.5 -27.5t-27.5 -85.5v-389h455v635h143v-1536h-143v768h-455v-768h-143v768h-182z" />
</font>
</defs>
</svg>
