<?xml version="1.0" standalone="no"?>
<!DOCTYPE svg PUBLIC "-//W3C//DTD SVG 1.1//EN" "http://www.w3.org/Graphics/SVG/1.1/DTD/svg11.dtd" >
<svg xmlns="http://www.w3.org/2000/svg">
<metadata></metadata>
<defs>
<font id="hackbold" horiz-adv-x="1233" >
<font-face units-per-em="2048" ascent="1638" descent="-410" />
<missing-glyph horiz-adv-x="500" />
<glyph horiz-adv-x="0" />
<glyph horiz-adv-x="682" />
<glyph unicode="&#xd;" />
<glyph unicode=" " />
<glyph unicode="!" d="M441 113q0 82 50 131q9 9 14.5 14t6.5 6q11 8 23 14l10 4q10 5 15 6l26 6q16 2 31 2q74 0 123 -51q49 -49 49 -133q0 -24 -5 -49q-3 -19 -17 -45q-10 -19 -28 -38q-24 -26 -56 -39q-30 -13 -68 -13q-75 0 -124 51q-50 50 -50 134zM470 1052v456h285v-456l-68 -576h-139z " />
<glyph unicode="&#x22;" d="M231 938v555h256v-555h-256zM743 938v555h256v-555h-256z" />
<glyph unicode="#" d="M2 373v215h260l74 293h-219v215h274l94 374h222l-95 -374h203l94 374h224l-97 -374h193v-215h-246l-74 -293h205v-215h-258l-94 -373h-221l94 373h-205l-94 -373h-221l94 373h-207zM483 588h205l74 293h-205z" />
<glyph unicode="$" d="M164 943q0 166 102 265t287 111v237h141l1 -237q72 -5 148 -18q78 -14 156 -39v-256q-61 40 -138 64q-79 24 -167 30v-307q199 -32 298 -134q100 -103 100 -273q0 -167 -108 -272q-108 -104 -289 -114l-1 -301h-141l-1 301q-85 3 -182 26q-94 22 -198 66v262 q103 -61 200 -94q96 -32 181 -34v329q-197 39 -293 135q-96 94 -96 253zM428 967q0 -57 32 -95q33 -39 93 -55v283q-61 -7 -93 -41t-32 -92zM694 226q63 9 98 49t35 101t-34 101q-34 38 -99 51v-302z" />
<glyph unicode="%" d="M33 1112q0 134 93 227t226 93q134 0 227 -93t93 -227q0 -133 -93 -226t-227 -93q-133 0 -226 93t-93 226zM48 561l1143 436v-114l-1139 -432zM215 1112q0 -57 40 -97t97 -40q58 0 98 40q39 39 39 97q0 57 -40 97t-97 40t-97 -39q-40 -40 -40 -98zM580 321q0 131 92 225 q91 93 226 93q133 0 227 -92t94 -227q0 -134 -93 -227t-228 -93q-134 0 -226 92t-92 229zM762 319q0 -59 39 -98t97 -39t98 40t40 97t-41 98q-40 40 -97 40t-97 -40q-39 -41 -39 -98z" />
<glyph unicode="&#x26;" d="M37 442q0 145 71 264q72 120 209 207q-52 83 -74 145q-24 66 -24 131q0 157 109 244q110 87 315 87q69 0 143 -11q65 -10 138 -32v-256q-65 37 -129 55q-62 18 -132 18q-80 0 -120 -28q-41 -29 -41 -80q0 -38 31 -101q30 -62 98 -165l313 -480q22 39 32 87q11 52 11 106 q0 25 -2 59q-1 28 -6 53h235v-51q0 -147 -34 -253q-35 -111 -107 -195l162 -246h-317l-48 72q-75 -49 -159 -75t-174 -26q-221 0 -361 131q-139 130 -139 340zM307 494q0 -120 78 -203q80 -84 195 -84q25 0 56 7q30 7 57 18l8 4q30 15 47 26l-308 469q-66 -43 -99 -102 q-34 -59 -34 -135z" />
<glyph unicode="'" d="M487 938v555h256v-555h-256z" />
<glyph unicode="(" d="M283 643q0 232 78 458q76 223 235 453h228q-131 -238 -196 -463q-64 -222 -64 -448q0 -224 64 -447q65 -227 196 -466h-228q-160 232 -236 456q-77 225 -77 457z" />
<glyph unicode=")" d="M409 -270q131 239 196 466q64 223 64 447q0 226 -64 448q-65 226 -196 463h228q159 -229 236 -453t77 -460q0 -230 -77 -455q-76 -223 -236 -456h-228z" />
<glyph unicode="*" d="M97 1081l51 148l369 -120l19 416h156l19 -416l369 120l51 -148l-358 -155l239 -366l-133 -95l-265 350l-265 -350l-133 95l239 366z" />
<glyph unicode="+" d="M66 524v238h432v430h237v-430h430v-238h-430v-432h-237v432h-432z" />
<glyph unicode="," d="M380 -275l14 6q105 45 170 123.5t72 179.5q-18 -2 -27 -2q-70 0 -117 43q-49 44 -49 121q0 26 6 48q6 21 17 41q11 19 28 34q25 22 57 34q31 11 67 11q29 0 58 -8q27 -8 50 -25q21 -16 38 -42q25 -35 37 -85t12 -111q0 -88 -24 -164q-24 -75 -71 -140q-89 -122 -267 -190 l-13 -5z" />
<glyph unicode="-" d="M221 455v291h791v-291h-791z" />
<glyph unicode="." d="M436 141q0 82 52 134q51 51 125 51q75 0 126 -51t51 -134q0 -80 -51 -131q-52 -52 -127 -52q-72 0 -124 52t-52 131z" />
<glyph unicode="/" d="M113 -190l786 1683h221l-786 -1683h-221z" />
<glyph unicode="0" d="M123 745q0 389 123 582t370 193q248 0 371 -193t123 -582q0 -387 -123 -581q-123 -193 -370 -193q-248 0 -371 194q-123 193 -123 580zM420 745q0 -273 47 -399q47 -125 149 -125q103 0 150 125q47 126 47 399q0 274 -47 400q-47 125 -150 125q-102 0 -149 -125 q-47 -126 -47 -400zM564 749q0 79 10 166q14 117 41 117q29 0 43 -119q11 -101 11 -170q0 -78 -9 -164q-13 -119 -43 -119q-27 0 -41 118q-12 102 -12 171z" />
<glyph unicode="1" d="M188 0v260h330v969l-307 -76v266l309 74h285v-1233h330v-260h-947z" />
<glyph unicode="2" d="M115 0v216q0 34 25 62l135 144q298 317 346 374q82 95 108 151q33 67 33 135q0 98 -60 152t-172 54q-81 0 -177 -31q-98 -31 -206 -92v275q108 40 210 60t200 20q233 0 369 -110q135 -110 135 -306q0 -84 -30 -161q-35 -88 -101 -171q-53 -67 -291 -306 q-85 -86 -152.5 -138.5t-82.5 -67.5h659v-260h-948z" />
<glyph unicode="3" d="M125 45v274q98 -48 203 -71q112 -25 213 -25q138 0 207 55t69 157q0 108 -70 171q-70 62 -198 62h-158v260h158q109 0 171 44q60 43 60 123q0 83 -60 129t-173 46q-82 0 -178 -21q-97 -21 -199 -61v268q105 32 203 48q97 16 191 16q238 0 369 -103q132 -103 132 -284 q0 -133 -76 -217q-77 -86 -217 -111q160 -28 244 -127t84 -264q0 -215 -138 -329t-407 -114q-113 0 -220 19q-111 20 -210 55z" />
<glyph unicode="4" d="M102 322v286l566 885h309v-918h164v-253h-164v-322h-283v322h-592zM317 575h377v590z" />
<glyph unicode="5" d="M143 35v266q83 -41 171 -61q90 -21 174 -21q158 0 238 67q81 68 81 189q0 123 -80 193q-79 69 -219 69q-77 0 -154 -19q-80 -19 -161 -59v834h811v-260h-572v-277q37 14 77 21q36 6 89 6q106 0 199.5 -36t159.5 -103q137 -139 137 -367q0 -234 -149 -370t-412 -136 q-95 0 -190 16q-96 16 -200 48z" />
<glyph unicode="6" d="M131 724q0 412 151 602q153 192 449 192q74 0 149 -15q74 -15 150 -45v-268q-82 46 -151 68q-72 22 -141 22q-159 0 -242 -107t-88 -318q48 67 120 98q72 32 174 32q201 0 310 -126q110 -127 110 -364q0 -251 -123 -389q-122 -137 -355 -137q-264 0 -388 184 q-125 185 -125 571zM446 478q0 -132 51 -202q50 -69 146 -69q97 0 148 70q51 69 51 200t-51 201t-149 70q-95 0 -145 -69q-51 -71 -51 -201z" />
<glyph unicode="7" d="M135 1233v260h944v-209l-506 -1284h-301l486 1233h-623z" />
<glyph unicode="8" d="M129 414q0 144 71 242q71 97 197 135q-113 39 -172 123q-59 83 -59 207q0 183 121 291t329 108t330 -108q121 -108 121 -292q0 -123 -58 -205q-58 -84 -169 -124q122 -37 194 -136q70 -97 70 -241q0 -209 -127 -326t-360 -117q-235 0 -361 117q-127 117 -127 326z M395 439q0 -106 61 -168q60 -62 160 -62t161 63t61 168q0 102 -61 164q-60 62 -161 62q-99 0 -160 -62t-61 -165zM428 1093q0 -85 51 -138q51 -52 137 -52q88 0 139 52q50 52 50 138q0 89 -50 139t-139 50q-86 0 -137 -51t-51 -138z" />
<glyph unicode="9" d="M111 983q0 250 122 387t357 137q263 0 387 -183q125 -185 125 -568q0 -410 -150 -601q-153 -194 -450 -194q-74 0 -148 15q-71 14 -151 44v269q77 -45 152 -68q70 -22 140 -22q158 0 242 107t88 318q-48 -65 -120 -97q-75 -33 -172 -33q-203 0 -313 128 q-109 127 -109 361zM391 1012q0 -131 52 -201t146 -70q96 0 147 70q50 70 50 200q0 133 -50 202t-147 69q-95 0 -146 -69q-52 -70 -52 -201z" />
<glyph unicode=":" d="M443 169q0 81 52 133q51 51 125 51q75 0 126 -51t51 -133t-51 -133t-126 -51q-74 0 -125 51q-52 52 -52 133zM443 885q0 82 51 133t127 51q74 0 125 -51t51 -132q0 -83 -51 -134t-127 -51q-73 0 -124 51q-52 52 -52 133z" />
<glyph unicode=";" d="M373 -346l15 7q118 50 183 132q64 81 71 186q-10 -2 -13 -2h-10q-81 0 -129 45q-51 45 -51 128q0 82 54 128q24 21 60 36q33 11 71 11q50 0 87 -20q40 -19 65 -58q28 -41 39 -90q13 -49 13 -116q0 -184 -99 -319q-93 -129 -281 -200l-14 -5zM425 888q0 85 53 140 q55 53 134 53q76 0 131 -53q53 -55 53 -139q0 -86 -53 -141q-55 -53 -134 -53q-75 0 -130 53q-54 54 -54 140z" />
<glyph unicode="&#x3c;" d="M88 524v236l1057 416v-250l-795 -285l795 -283v-249z" />
<glyph unicode="=" d="M88 295v237h1057v-237h-1057zM88 752v235h1057v-235h-1057z" />
<glyph unicode="&#x3e;" d="M88 109v249l795 283l-795 285v250l1057 -416v-236z" />
<glyph unicode="?" d="M229 1198v225l7 5q96 58 194 87q96 28 202 28q98 0 173 -25q77 -26 135 -75q57 -49 86 -117q29 -69 29 -149q0 -82 -36 -151q-36 -68 -130 -161l-87 -86q-33 -32 -55 -58q-17 -20 -30 -45q-18 -34 -18 -77v-142h-220v126q0 83 31 152q32 72 118 156l90 89q31 31 51 55 q23 27 32 44q11 21 17 42q5 20 5 44q0 23 -3 40q-4 19 -11 35q-5 13 -19 30q-13 17 -27 28q-22 18 -45 28q-28 12 -55 17q-30 6 -64 6q-31 0 -52 -3t-54 -11q-24 -6 -57 -19q-87 -33 -183 -101zM431 117q0 75 47 122q46 45 114 45q16 0 33 -3q16 -3 29 -9q14 -6 27 -14 q10 -6 25 -21q23 -23 35 -53t12 -66q0 -74 -47 -121t-114 -47t-114 47t-47 120z" />
<glyph unicode="@" d="M6 546q0 385 187 617t490 232q224 0 350 -131q126 -132 126 -359v-770h-196v82q-38 -52 -89 -77t-125 -25q-163 0 -263 118q-101 119 -101 313q0 193 100 310q101 117 263 117q75 0 127 -24q54 -25 88 -72v41q0 136 -74 210q-76 74 -210 74q-213 0 -343 -182 q-131 -183 -131 -476q0 -309 151 -490q75 -90 179 -135.5t222 -45.5q87 0 160 23q72 23 144 71l92 -176q-79 -55 -176 -83q-92 -27 -210 -27q-344 0 -553 233q-208 232 -208 632zM592 545q0 -113 51 -178q51 -64 139 -64q89 0 140 64t51 178q0 113 -51 177t-140 64 q-88 0 -139 -64t-51 -177z" />
<glyph unicode="A" d="M33 0l403 1493h361l403 -1493h-295l-92 369h-395l-90 -369h-295zM477 612h279l-140 611z" />
<glyph unicode="B" d="M125 0v1495h481q250 0 375 -94q125 -95 125 -283q0 -143 -74 -225q-73 -80 -217 -94q170 -16 258 -115q86 -98 86 -275q0 -215 -130 -312t-423 -97h-481zM410 236h196q141 0 198 48q56 48 56 167q0 121 -59 174t-195 53h-196v-442zM410 913h196q113 0 160 41t47 131 q0 92 -48 133q-49 42 -159 42h-196v-347z" />
<glyph unicode="C" d="M141 745q0 377 159 576t459 199q87 0 165 -18q79 -18 146 -54v-328q-78 71 -148 103q-71 32 -148 32q-160 0 -243 -128q-83 -130 -83 -382t83 -380q83 -129 243 -129q77 0 149 33q70 32 147 102v-328q-70 -36 -147 -54t-164 -18q-300 0 -459 199t-159 575z" />
<glyph unicode="D" d="M137 0v1493h316q367 0 527 -174q161 -175 161 -572q0 -395 -161 -571t-527 -176h-316zM432 266h80q174 0 248 110t74 372q0 260 -74 370q-73 109 -248 109h-80v-961z" />
<glyph unicode="E" d="M168 0v1493h930v-260h-635v-322h575v-260h-575v-391h635v-260h-930z" />
<glyph unicode="F" d="M182 0v1493h930v-260h-635v-332h578v-260h-578v-641h-295z" />
<glyph unicode="G" d="M117 747q0 375 160 574t455 199q97 0 182 -25t163 -74v-327q-62 80 -142 121q-80 40 -176 40q-169 0 -252 -126q-83 -128 -83 -382q0 -251 80 -382q79 -129 234 -129q44 0 79 9q31 8 55 25v285h-202v248h460v-684q-84 -72 -187 -110q-105 -38 -223 -38q-287 0 -445 201 t-158 575z" />
<glyph unicode="H" d="M137 0v1493h295v-569h369v569h295v-1493h-295v664h-369v-664h-295z" />
<glyph unicode="I" d="M172 0v260h297v973h-297v260h889v-260h-297v-973h297v-260h-889z" />
<glyph unicode="J" d="M109 74v342q83 -86 184 -134q96 -46 197 -46q115 0 169 58t54 185v754h-361v260h656v-1014q0 -273 -114 -390q-115 -118 -370 -118q-100 0 -206 26q-104 26 -209 77z" />
<glyph unicode="K" d="M117 0v1493h295v-590l462 590h334l-471 -588l488 -905h-328l-354 672l-131 -166v-506h-295z" />
<glyph unicode="L" d="M225 0v1493h295v-1233h631v-260h-926z" />
<glyph unicode="M" d="M86 0v1493h352l178 -655l177 655h354v-1493h-254v1196l-158 -653h-235l-160 653v-1196h-254z" />
<glyph unicode="N" d="M119 0v1493h317l416 -1085v1085h260v-1493h-315l-418 1085v-1085h-260z" />
<glyph unicode="O" d="M92 745q0 383 133 580q132 195 391 195q261 0 393 -196t132 -579q0 -382 -132 -578t-393 -196q-259 0 -391 195q-133 197 -133 579zM399 746q0 -270 52 -389q52 -121 165 -121q114 0 166 121q52 119 52 389q0 269 -52 388q-52 121 -166 121q-113 0 -165 -121 q-52 -119 -52 -388z" />
<glyph unicode="P" d="M166 0v1493h405q308 0 445 -110q135 -109 135 -357t-135 -357q-137 -110 -445 -110h-110v-559h-295zM461 807h121q146 0 204 49t58 170t-58 170t-204 49h-121v-438z" />
<glyph unicode="Q" d="M92 744q0 384 133 581q132 195 391 195q261 0 393 -196t132 -579q0 -263 -63 -440t-183 -254l286 -332h-342l-183 258l-23 -5q-7 -1 -11 -1q-263 0 -397 196q-133 196 -133 577zM399 746q0 -270 52 -389q52 -121 165 -121q114 0 166 121q52 119 52 389q0 269 -52 388 q-52 121 -166 121q-113 0 -165 -121q-52 -119 -52 -388z" />
<glyph unicode="R" d="M133 0v1493h426q288 0 414 -102q125 -102 125 -327q0 -158 -75 -250q-75 -91 -216 -109q45 -9 77 -41q31 -31 79 -127l270 -537h-324l-180 377l-21 44q-43 87 -87 128t-99 41h-94v-590h-295zM428 838h139q121 0 174 48q52 47 52 156q0 110 -52 156q-53 47 -174 47h-139 v-407z" />
<glyph unicode="S" d="M129 1085q0 204 130 319q131 116 356 116q105 0 207 -23q103 -23 204 -70v-288q-94 67 -193 102t-195 35q-107 0 -163 -43q-57 -43 -57 -122q0 -63 42 -103q42 -41 173 -90l127 -48q181 -68 265 -174q85 -109 85 -281q0 -221 -134 -332q-135 -112 -394 -112 q-121 0 -231 26q-114 27 -216 79v305q118 -84 229 -125t216 -41q110 0 171 50q60 49 60 138q0 68 -40 118q-41 51 -116 79l-145 55q-221 84 -302 179q-79 92 -79 251z" />
<glyph unicode="T" d="M90 1235v258h1053v-258h-379v-1235h-295v1235h-379z" />
<glyph unicode="U" d="M106 551v942h295v-1016q0 -113 57 -176t158 -63t158 63t57 176v1016h295v-942q0 -305 -121 -442q-121 -138 -389 -138q-266 0 -388 138q-122 139 -122 442z" />
<glyph unicode="V" d="M57 1493h297l262 -1247l263 1247h297l-355 -1493h-409z" />
<glyph unicode="W" d="M0 1493h258l107 -1096l129 709h245l150 -709l84 1096h260l-172 -1493h-275l-170 784l-159 -784h-273z" />
<glyph unicode="X" d="M27 0l438 758l-426 735h305l272 -475l273 475h305l-424 -735l436 -758h-305l-285 494l-284 -494h-305z" />
<glyph unicode="Y" d="M8 1493h318l290 -600l291 600h318l-461 -905v-588h-295v588z" />
<glyph unicode="Z" d="M94 0v244l671 989h-649v260h1010v-244l-692 -989h706v-260h-1046z" />
<glyph unicode="[" d="M384 -270v1906h503v-190h-238v-1531h238v-185h-503z" />
<glyph unicode="\" d="M111 1493h223l786 -1683h-223z" />
<glyph unicode="]" d="M344 -83h243v1528h-243v190h505v-1905h-505v187z" />
<glyph unicode="^" d="M57 936l437 557h245l437 -557h-242l-318 301l-317 -301h-242z" />
<glyph unicode="_" d="M0 -293h1233v-190h-1233v190z" />
<glyph unicode="`" d="M199 1638h282l283 -376h-197z" />
<glyph unicode="a" d="M95 354q0 197 127 290q128 93 393 93h203v49q0 71 -51 108q-50 36 -157 36q-99 0 -198 -26q-101 -27 -206 -85v250q98 41 197 59q108 20 225 20q253 0 369 -113q57 -55 84.5 -147.5t27.5 -243.5q0 -40 -2.5 -194.5t-2.5 -175.5q0 -41 2 -77q3 -36 7 -72q6 -41 14 -67 q9 -29 28 -58h-290q-18 30 -28 58q-9 28 -13 67q-55 -73 -142 -114q-83 -40 -188 -40q-185 0 -292 101t-107 282zM407 342q0 -78 45 -123t124 -45q114 0 178 88q64 86 64 244v20h-117q-165 0 -229 -42q-65 -42 -65 -142z" />
<glyph unicode="b" d="M150 0v1556h292v-595q54 94 126 140q70 46 167 46q194 0 301 -152q107 -151 107 -435q0 -283 -106 -436q-107 -153 -297 -153q-103 0 -177 49q-75 49 -121 146l-29 -166h-263zM442 557q0 -163 55 -254q56 -92 150 -92q95 0 149 92t54 254q0 163 -54 254q-54 92 -149 92 q-94 0 -150 -92q-55 -91 -55 -254z" />
<glyph unicode="c" d="M148 559q0 277 147 434q147 156 404 156q92 0 176 -21q83 -21 166 -65v-268q-66 57 -140 85q-76 29 -160 29q-142 0 -219 -91q-77 -92 -77 -259t77 -258q76 -90 220 -90q84 0 159 29q76 29 140 86v-269q-72 -42 -159 -64q-88 -22 -180 -22q-262 0 -408 156 q-146 157 -146 432z" />
<glyph unicode="d" d="M90 560q0 284 108 435q108 152 300 152q98 0 168 -46q71 -47 125 -140v595h292v-1556h-263l-29 166q-46 -96 -121 -146q-74 -49 -178 -49q-190 0 -296 153t-106 436zM383 557q0 -163 54 -254q54 -92 149 -92q94 0 150 92q55 91 55 254t-55 254q-56 92 -150 92 q-95 0 -149 -92q-54 -91 -54 -254z" />
<glyph unicode="e" d="M82 554q0 274 143 434q142 159 392 159q248 0 385 -147t137 -416v-119h-759q2 -133 78 -197q77 -65 229 -65q101 0 200 29t205 92v-269q-102 -42 -208 -63t-219 -21q-286 0 -434 151q-149 152 -149 432zM383 684l461 1q-2 117 -59 176t-168 59q-103 0 -163 -61 q-60 -62 -71 -175z" />
<glyph unicode="f" d="M154 895v225h272v78q0 202 84 280t312 78h241v-225h-229q-66 0 -89 -24q-26 -26 -26 -89v-98h344v-225h-344v-895h-293v895h-272z" />
<glyph unicode="g" d="M98 573q0 263 113 420q113 156 301 156q98 0 173 -45t118 -127l29 143h264v-1036q0 -269 -121 -389q-122 -119 -397 -119q-93 0 -180 13q-90 13 -183 42v269q79 -45 169 -68q84 -22 172 -22q130 0 188 58q59 59 59 183v121q-44 -80 -114 -119q-71 -39 -172 -39 q-193 0 -306 150q-113 151 -113 409zM391 578q0 -152 57 -242q56 -90 148 -90q93 0 150 91t57 240q0 151 -57 242q-57 90 -150 90q-92 0 -148 -90q-57 -90 -57 -241z" />
<glyph unicode="h" d="M172 0v1556h291v-604q32 93 106 144q75 51 182 51q158 0 239 -105q81 -106 81 -315v-727h-291v682q0 121 -34 173t-111 52q-82 0 -127 -70q-45 -71 -45 -196v-641h-291z" />
<glyph unicode="i" d="M184 895v225h530v-665q0 -131 41 -187q40 -55 139 -55h234v-225h-316q-208 0 -300 108q-91 107 -91 359v440h-237zM421 1283v282q0 30 30 30h233q30 0 30 -30v-282q0 -30 -30 -30h-233q-30 0 -30 30z" />
<glyph unicode="j" d="M170 -199h234q99 0 139 55q41 56 41 187v852h-297v225h590v-1077q0 -252 -90 -360q-90 -107 -301 -107h-316v225zM584 1283v282q0 30 30 30h233q30 0 30 -30v-282q0 -30 -30 -30h-233q-30 0 -30 30z" />
<glyph unicode="k" d="M174 0v1556h293v-817l352 381h355l-424 -418l448 -702h-324l-307 524l-100 -96v-428h-293z" />
<glyph unicode="l" d="M100 1331v225h590v-1097q0 -131 41 -187q40 -55 139 -55h234v-225h-316q-208 0 -300 108q-91 107 -91 359v872h-297z" />
<glyph unicode="m" d="M82 0v1120h184l29 -116q26 67 80 105q55 38 124 38q68 0 123 -40q56 -41 68 -99q33 70 84 105q50 34 128 34q144 0 198 -100q55 -101 55 -416v-631h-240v719q0 124 -19 166q-19 43 -69 43t-70 -44q-20 -43 -20 -165v-719h-237v719q0 121 -20 166q-19 43 -70 43 q-50 0 -69 -42q-19 -41 -19 -167v-719h-240z" />
<glyph unicode="n" d="M172 0v1120h262l29 -168q32 93 106 144q75 51 182 51q158 0 239 -105q81 -106 81 -315v-727h-291v682q0 123 -34 175t-110 52q-82 0 -127 -71q-46 -71 -46 -197v-641h-291z" />
<glyph unicode="o" d="M98 560q0 271 140 429t378 158q240 0 379 -157q140 -158 140 -431q0 -270 -139 -429q-140 -159 -379 -159t-379 158t-140 431zM391 560q0 -166 60 -259q60 -92 165 -92q106 0 166 92q60 93 60 259q0 164 -60 257q-60 92 -166 92q-105 0 -165 -92q-60 -93 -60 -257z" />
<glyph unicode="p" d="M150 -426v1546h263l29 -168q46 97 121 146q74 49 177 49q190 0 297 -153q106 -153 106 -436q0 -284 -107 -435q-108 -152 -301 -152q-97 0 -168 47q-75 50 -125 140v-584h-292zM442 561q0 -163 55 -254q56 -92 150 -92q95 0 149 92q54 91 54 254t-54 254q-54 92 -149 92 q-94 0 -150 -92q-55 -91 -55 -254z" />
<glyph unicode="q" d="M90 558q0 283 106 436q107 153 296 153q104 0 178 -49q75 -50 121 -146l29 168h263v-1546h-292v584q-53 -92 -125 -140q-70 -47 -167 -47q-193 0 -301 152q-108 151 -108 435zM383 561q0 -163 54 -254q54 -92 149 -92q94 0 150 92q55 91 55 254t-55 254q-56 92 -150 92 q-95 0 -149 -92q-54 -91 -54 -254z" />
<glyph unicode="r" d="M241 0v1120h264l29 -174q44 97 132 149t205 52q65 0 121 -14q58 -15 109 -43v-279q-48 44 -112 66q-63 22 -141 22q-94 0 -163 -32q-70 -32 -108 -94q-24 -38 -33 -93q-10 -56 -10 -164v-516h-293z" />
<glyph unicode="s" d="M172 803q0 164 117 254t330 90q99 0 189 -15q99 -17 183 -47v-256q-82 53 -168 79t-180 26t-143 -28q-51 -28 -51 -80q0 -45 51 -77t163 -58l11 -3l84 -20q162 -39 235 -122q74 -84 74 -229q0 -173 -113 -259q-114 -87 -338 -87q-107 0 -211 17q-98 16 -215 53v256 q98 -56 198 -84q102 -29 197 -29q99 0 153 30q53 30 53 93q0 50 -39 79q-49 36 -177 65l-81 18q-168 38 -245 119q-77 82 -77 215z" />
<glyph unicode="t" d="M111 895v225h286v306l293 130v-436h383v-225h-383v-534q0 -74 37 -107t121 -33h225v-225h-246q-252 0 -341 81q-89 80 -89 298v520h-286z" />
<glyph unicode="u" d="M160 391v729h293v-684q0 -121 34 -173t111 -52q82 0 126 70q44 71 44 196v643h293v-1120h-264l-29 166q-32 -93 -105 -144q-75 -51 -182 -51q-157 0 -239 106t-82 314z" />
<glyph unicode="v" d="M80 1120h297l239 -874l240 874h297l-356 -1120h-361z" />
<glyph unicode="w" d="M0 1120h244l133 -858l121 565h237l119 -565l135 858h244l-203 -1120h-278l-136 582l-135 -582h-278z" />
<glyph unicode="x" d="M55 0l414 584l-381 536h342l186 -334l187 334h342l-377 -536l410 -584h-342l-220 377l-219 -377h-342z" />
<glyph unicode="y" d="M69 1120h308l256 -727l245 727h308l-465 -1241q-60 -159 -141 -231q-82 -72 -201 -72h-242v223h119q92 0 132 30q46 35 85 142l22 60z" />
<glyph unicode="z" d="M162 0v229l590 672h-566v219h895v-229l-589 -672h589v-219h-919z" />
<glyph unicode="{" d="M96 516v191h92q140 0 194 57q53 58 53 209v215q0 222 85 295q83 73 333 73h150v-190h-123q-104 0 -139 -42q-35 -43 -35 -185v-209q0 -165 -49 -232q-49 -66 -175 -86q125 -21 175 -89q49 -67 49 -232v-205q0 -143 35 -187q35 -42 139 -42h123v-191h-150q-248 0 -333 74 q-85 73 -85 295v215q0 152 -53 209t-194 57h-92z" />
<glyph unicode="|" d="M502 -483v2048h227v-2048h-227z" />
<glyph unicode="}" d="M230 -143h121q104 0 140 43q36 44 36 186v205q0 165 49 232q49 68 174 89q-127 20 -174 86q-49 67 -49 232v209q0 140 -35 184q-35 43 -141 43h-121v190h150q249 0 332 -73q83 -74 83 -295v-215q0 -150 55 -208t195 -58h92v-191h-92q-141 0 -195 -58q-55 -58 -55 -208 v-215q0 -221 -83 -295q-85 -74 -332 -74h-150v191z" />
<glyph unicode="~" d="M88 465v229q77 61 151 88q73 27 155 27q55 0 104 -11q62 -14 124 -42l33 -15q120 -55 208 -55q70 0 140 31q71 32 142 94v-233q-74 -59 -146 -87t-149 -28q-38 0 -75 7.5t-61.5 16.5t-68.5 27q-13 5 -20.5 8.5t-9.5 4.5t-3 1q-74 33 -128 46q-53 12 -103 12 q-76 0 -148 -29q-74 -30 -145 -92z" />
<glyph unicode="&#xa0;" />
<glyph unicode="&#xa1;" d="M441 1323q0 84 50 134q49 51 124 51q38 0 68 -13q32 -13 56 -39q18 -19 28 -38q14 -26 17 -45q5 -25 5 -49q0 -84 -49 -133q-49 -51 -123 -51q-15 0 -31 2l-26 6q-5 1 -15 6l-10 4q-12 6 -23 14q-1 1 -6.5 6t-14.5 14q-50 49 -50 131zM470 -72v456l78 576h139l68 -576 v-456h-285z" />
<glyph unicode="&#xa2;" d="M147 562q0 254 137 411q136 156 371 172v287h142v-287q61 -5 120 -21q49 -14 119 -47v-268q-56 42 -116 67q-59 24 -123 31v-692q63 4 124 29q62 25 115 67v-268q-58 -31 -112 -46q-63 -18 -127 -22v-288h-142v288q-235 22 -371 179q-137 158 -137 408zM418 560 q0 -154 63 -246q63 -93 174 -99v692q-113 -13 -175 -103t-62 -244z" />
<glyph unicode="&#xa3;" d="M119 0v260h235v334h-198v225h198v197q0 255 113 380q112 124 343 124q87 0 155 -14t137 -44v-274q-57 41 -122 63q-63 21 -132 21q-108 0 -157 -66q-50 -68 -50 -211v-176h336v-225h-336v-334h481v-260h-1003z" />
<glyph unicode="&#xa4;" d="M186 305l170 170q-20 38 -33 84q-12 45 -12 83q0 44 12 87q11 41 35 78l-172 170l131 131l166 -172q41 24 83 36q42 11 86 11q39 0 81 -11q34 -9 86 -34l172 170l127 -129l-170 -170q24 -43 34 -82q11 -44 11 -86q0 -48 -11 -87q-12 -41 -36 -77l172 -170l-131 -131 l-170 172q-36 -24 -76 -35q-43 -12 -85 -12q-40 0 -84 11q-46 12 -87 32l-170 -168zM479 643q0 -73 50 -125q49 -51 125 -51q74 0 123 51q50 52 50 124q0 75 -49 124t-125 49q-73 0 -123 -48q-51 -49 -51 -124z" />
<glyph unicode="&#xa5;" d="M8 1493h318l290 -600l291 600h318l-273 -528h224v-187h-322l-86 -151h408v-189h-412v-438h-295v438h-412v189h408l-86 151h-322v187h224z" />
<glyph unicode="&#xa6;" d="M502 -350v758h227v-758h-227zM502 674v758h227v-758h-227z" />
<glyph unicode="&#xa7;" d="M170 696q0 86 52 156t149 102q-72 50 -103 110q-32 61 -32 141q0 143 104 229t277 86q73 0 152 -15q77 -15 161 -45v-225q-86 30 -151 45q-64 14 -122 14q-73 0 -116 -29t-43 -77q0 -44 46 -83.5t157 -100.5q14 -8 18.5 -10t9.5 -5q130 -70 185 -105t88 -75 q59 -71 59 -171q0 -90 -47 -154t-150 -111q70 -49 103 -111q32 -61 32 -144q0 -147 -104 -230q-103 -83 -293 -83q-89 0 -173 14q-78 13 -171 44v229q87 -30 166 -45q83 -16 147 -16q85 0 125 29q41 30 41 74q0 41 -49 85t-165 107l-37 20q-164 89 -240 173.5t-76 176.5z M414 712q0 -56 49 -99q51 -45 248 -140q55 35 80 71q24 34 24 69q0 46 -67.5 104t-197.5 123l-32 16q-54 -35 -79 -70t-25 -74z" />
<glyph unicode="&#xa8;" d="M301 1369v186q0 30 30 30h176q30 0 30 -30v-186q0 -30 -30 -30h-176q-30 0 -30 30zM696 1369v186q0 30 30 30h176q30 0 30 -30v-186q0 -30 -30 -30h-176q-30 0 -30 30z" />
<glyph unicode="&#xa9;" d="M0 741q0 128 46 236q46 110 136 201q89 90 199 135q109 45 235 45t236 -45q112 -46 199 -135q88 -90 136 -201q46 -108 46 -235q0 -128 -45 -234q-47 -112 -136 -201t-201 -136q-108 -46 -235 -46q-125 0 -234 46q-113 48 -201 136q-89 89 -136 201q-45 106 -45 233z M131 742q0 -98 36 -184q36 -84 107 -157q70 -72 157 -108q87 -37 185 -37q99 0 186 37q86 37 156 107q72 72 108 158t36 185q0 98 -36 184q-37 87 -107 159q-68 70 -157 107q-85 36 -183 36q-103 0 -188 -36q-87 -37 -157 -107t-107 -159q-36 -84 -36 -185zM266 741 q0 157 101 250q100 92 269 92q58 0 109 -8q45 -7 103 -26v-168q-53 32 -97 45q-48 14 -96 14q-94 0 -148 -52t-54 -147t53 -146q52 -52 152 -52q50 0 100 15q48 14 90 44v-168q-59 -18 -108 -26q-52 -9 -103 -9q-170 0 -270 93q-101 94 -101 249z" />
<glyph unicode="&#xaa;" d="M256 953q0 133 93 200q91 66 280 66h157v26q0 50 -45 74t-140 24q-82 0 -150 -16q-71 -16 -136 -51v188q75 29 147 42q76 14 151 14q188 0 277 -86t89 -269v-448h-174l-19 92q-49 -57 -110 -84q-62 -27 -139 -27q-128 0 -205 68q-76 68 -76 187zM293 428v170h688v-170 h-688zM475 970q0 -48 30 -76t88 -28q84 0 139 52q54 51 54 131v30h-102q-109 0 -159 -26t-50 -83z" />
<glyph unicode="&#xab;" d="M59 535v131l469 393v-238l-277 -221l277 -221v-238zM513 535v131l469 393v-238l-276 -221l276 -221v-238z" />
<glyph unicode="&#xac;" d="M88 662v237h1057v-537h-238v300h-819z" />
<glyph unicode="&#xad;" d="M301 444v291h631v-291h-631z" />
<glyph unicode="&#xae;" d="M0 741q0 128 46 236q46 110 136 201q88 90 199 135q109 45 235 45t236 -45q112 -46 199 -135q88 -90 136 -201q46 -108 46 -235q0 -128 -45 -234q-47 -112 -136 -201t-201 -136q-108 -46 -235 -46q-124 0 -234 46q-113 48 -201 136q-87 87 -135 200q-46 110 -46 234z M131 742q0 -98 36 -184q37 -88 107 -158q71 -71 158 -108q86 -36 184 -36q100 0 185 36q86 36 157 107t108 159q36 86 36 184q0 99 -36 185q-37 87 -107 159q-68 69 -157 107q-85 36 -185 36t-185 -36q-91 -39 -159 -108q-69 -70 -106 -158q-36 -85 -36 -185zM360 430v625 h246q133 0 198 -44q64 -43 64 -133q0 -66 -39 -108q-40 -43 -110 -55q37 -13 66 -42q28 -28 51 -77l79 -166h-172l-63 133q-29 61 -55 82q-29 24 -70 25h-31v-240h-164zM524 780h64q57 0 86 20q28 19 28 61t-28 63q-29 20 -86 20h-64v-164z" />
<glyph unicode="&#xaf;" d="M301 1368v188h631v-188h-631z" />
<glyph unicode="&#xb0;" d="M283 1185q0 142 95 239q96 96 238 96q68 0 128 -25t108 -73q47 -47 72 -109q24 -58 24 -125q0 -69 -25 -129q-25 -61 -71 -107t-109 -72t-130 -26q-141 0 -235 94q-95 95 -95 237zM444 1185q0 -71 49 -120t121 -49t122 50t50 121q0 72 -49 121q-50 50 -121 50 q-72 0 -122 -50t-50 -123z" />
<glyph unicode="&#xb1;" d="M88 0v238h1057v-238h-1057zM88 694v236h410v354h237v-354h410v-236h-410v-354h-237v354h-410z" />
<glyph unicode="&#xb2;" d="M274 1120v141q25 22 141 118q163 136 238.5 219t75.5 129q0 45 -43 75t-117 30q-59 0 -125 -17q-72 -18 -145 -52v164q75 23 146 34q68 11 142 11q167 0 258 -63q45 -30 69 -72.5t24 -83.5q0 -74 -84 -176t-271 -247q-26 -20 -36.5 -28.5t-11 -8.5t-8.5 -6.5t-27 -21.5 h440v-145h-666z" />
<glyph unicode="&#xb3;" d="M287 1154v154q70 -28 143 -41q79 -14 150 -14q90 0 139 32q47 32 47 89q0 60 -49 94t-135 34h-111v146h111q74 0 117 25q42 25 42 70q0 44 -39 70q-38 25 -116 25q-60 0 -132 -11q-64 -10 -137 -34v152q78 18 139 26q69 9 135 9q165 0 256 -58q91 -59 91 -160 q0 -73 -52 -119t-151 -63q111 -15 170 -71q58 -55 58 -149q0 -120 -96 -183q-97 -64 -279 -64q-73 0 -152 11q-76 11 -149 30z" />
<glyph unicode="&#xb4;" d="M469 1262l283 376h282l-368 -376h-197z" />
<glyph unicode="&#xb5;" d="M154 -428v1548h287v-680q0 -113 41 -171t122 -58q82 0 122 57q40 56 40 172v680h289v-776q0 -69 14 -102q13 -31 44 -31q12 0 27 6q12 5 28 16v-217q-47 -24 -80 -34q-39 -11 -74 -11q-69 0 -115 38q-45 37 -73 120q-38 -78 -92 -118q-55 -40 -126 -40q-58 0 -99 23 q-42 23 -68 72l2 -494h-289z" />
<glyph unicode="&#xb6;" d="M70 1070q0 192 130 307q131 116 345 116h520v-1690h-191v1543h-190v-1543h-188v846q-204 26 -315 135q-111 110 -111 286z" />
<glyph unicode="&#xb7;" d="M256 706q0 151 106 255t255 104q147 0 253 -103q107 -105 107 -254q0 -151 -107 -258q-106 -106 -256 -106q-149 0 -254 107q-104 106 -104 255z" />
<glyph unicode="&#xb8;" d="M367 -219q48 -18 87 -26q42 -9 78 -9q57 0 91 23q32 23 32 61q0 28 -21 69q-23 44 -67 101h140q55 -60 85 -115q27 -51 27 -106q0 -89 -62 -135q-61 -45 -184 -45q-57 0 -102 6q-17 2 -104 20v156z" />
<glyph unicode="&#xb9;" d="M313 1120v145h226v543l-220 -43v149l222 41h194v-690h226v-145h-648z" />
<glyph unicode="&#xba;" d="M274 1107q0 189 99 302q97 111 264 111t264 -111q98 -112 98 -302q0 -188 -97 -298q-98 -111 -265 -111q-165 0 -264 111t-99 298zM293 428v170h688v-170h-688zM479 1108q0 -109 42 -171q43 -63 116 -63q74 0 116 63q42 61 42 171q0 109 -42 172q-43 63 -116 63 q-72 0 -115 -62q-43 -64 -43 -173z" />
<glyph unicode="&#xbb;" d="M253 141v238l276 221l-276 221v238l469 -393v-131zM707 141v238l277 221l-277 221v238l469 -393v-131z" />
<glyph unicode="&#xbc;" d="M47 618l1059 263l37 -119l-1059 -262zM55 824v145h226v543l-220 -43v149l222 41h194v-690h226v-145h-648zM430 72l375 493h204v-512h109v-143h-109v-180h-186v180h-393v162zM573 53h250v330z" />
<glyph unicode="&#xbd;" d="M47 618l1059 263l37 -119l-1059 -262zM55 824v145h226v543l-220 -43v149l222 41h194v-690h226v-145h-648zM475 -129q25 22 141 118q163 136 238.5 219t75.5 129q0 45 -43 75q-44 30 -117 30q-59 0 -125 -17q-72 -18 -145 -52v164q75 23 146 34q68 11 142 11 q166 0 258 -63q45 -30 69 -72.5t24 -83.5q0 -74 -84 -176t-271 -247q-26 -20 -36.5 -28.5t-11 -8.5t-8.5 -6.5t-27 -21.5h440v-145h-666v141z" />
<glyph unicode="&#xbe;" d="M47 618l1059 263l37 -119l-1059 -262zM60 850v154q70 -28 143 -41q79 -14 150 -14q90 0 139 32q47 32 47 89q0 60 -49 94t-135 34h-111v146h111q74 0 117 25q42 25 42 70q0 44 -39 70q-38 25 -116 25q-60 0 -132 -11q-64 -10 -137 -34v152q78 18 139 26q69 9 135 9 q165 0 256 -58q91 -59 91 -160q0 -73 -52 -119t-151 -63q111 -15 170 -71q58 -55 58 -149q0 -120 -96 -183q-97 -64 -279 -64q-73 0 -152 11q-76 11 -149 30zM430 72l375 493h204v-512h109v-143h-109v-180h-186v180h-393v162zM573 53h250v330z" />
<glyph unicode="&#xbf;" d="M176 323q0 80 34 145q35 67 128 157l88 86q66 64 85 106q19 41 19 105q0 3 1 6q1 14 1 41v123h267v-154q0 -100 -31 -169q-30 -69 -111 -148l-90 -89q-62 -61 -83 -98q-23 -43 -23 -87q0 -66 46 -100t135 -34q86 0 177 36q89 35 187 105v-268q-97 -55 -198 -84t-202 -29 q-203 0 -316 94q-114 95 -114 256zM506 1389q0 75 47 122q46 45 114 45q17 0 33 -3t29 -9q14 -6 27 -14q10 -6 25 -21q23 -23 35 -53t12 -66q0 -74 -47 -121t-114 -47t-114 47t-47 120z" />
<glyph unicode="&#xc0;" d="M33 0l403 1493h361l403 -1493h-295l-92 369h-395l-90 -369h-295zM283 1852h284l199 -264h-197zM477 612h279l-140 611z" />
<glyph unicode="&#xc1;" d="M33 0l403 1493h361l403 -1493h-295l-92 369h-395l-90 -369h-295zM469 1588l199 264h284l-286 -264h-197zM477 612h279l-140 611z" />
<glyph unicode="&#xc2;" d="M33 0l403 1493h361l403 -1493h-295l-92 369h-395l-90 -369h-295zM240 1588l221 264h309l223 -264h-178l-199 161l-198 -161h-178zM477 612h279l-140 611z" />
<glyph unicode="&#xc3;" d="M33 0l403 1493h361l403 -1493h-295l-92 369h-395l-90 -369h-295zM268 1588v30q0 107 54 171q55 65 144 65q37 0 73 -12q39 -13 75 -37l60 -39q20 -13 41 -21t35 -8q36 0 56 30q19 29 19 87h140q0 -8 -1 -15q-1 -6 -1 -13q0 -108 -53 -173q-54 -65 -142 -65q-36 0 -72 11 t-78 38l-54 34l-4 3l-8 4q-49 26 -73 26q-31 0 -51 -30q-20 -31 -20 -80v-6h-140zM477 612h279l-140 611z" />
<glyph unicode="&#xc4;" d="M33 0l403 1493h361l403 -1493h-295l-92 369h-395l-90 -369h-295zM301 1636v186q0 30 30 30h176q30 0 30 -30v-186q0 -30 -30 -30h-176q-30 0 -30 30zM477 612h279l-140 611zM696 1636v186q0 30 30 30h176q30 0 30 -30v-186q0 -30 -30 -30h-176q-30 0 -30 30z" />
<glyph unicode="&#xc5;" d="M33 0l385 1421q-45 39 -65 86q-21 48 -21 107q0 121 83 204t202 83q118 0 202 -84q82 -82 82 -202q0 -61 -21 -108q-21 -48 -65 -86l385 -1421h-295l-92 369h-395l-90 -369h-295zM477 612h279l-140 611zM485 1616q0 -54 38 -92q39 -39 95 -39q53 0 92 39q38 38 38 92 t-39 93q-40 38 -92 38q-55 0 -93 -38q-39 -39 -39 -93z" />
<glyph unicode="&#xc6;" d="M0 0l358 1493h803v-260h-291v-311h260v-260h-260v-402h310v-260h-564v362h-282l-86 -362h-248zM389 598h227v635h-79z" />
<glyph unicode="&#xc7;" d="M141 745q0 377 159 576t459 199q87 0 165 -18q79 -18 146 -54v-328q-78 71 -148 103q-71 32 -148 32q-160 0 -243 -128q-83 -130 -83 -382t83 -380q83 -129 243 -129q77 0 149 33q70 32 147 102v-328q-70 -36 -147 -54q-35 -9 -87 -14q39 -47 62 -90q27 -51 27 -106 q0 -89 -62 -135q-61 -45 -186 -45q-51 0 -100 6q-10 1 -104 20v156q48 -18 87 -26q42 -9 78 -9q57 0 91 23q32 23 32 61q0 28 -21 69q-19 36 -47 75q-253 20 -393 196q-159 199 -159 575z" />
<glyph unicode="&#xc8;" d="M168 0v1493h930v-260h-635v-322h575v-260h-575v-391h635v-260h-930zM314 1842h284l199 -264h-197z" />
<glyph unicode="&#xc9;" d="M168 0v1493h930v-260h-635v-322h575v-260h-575v-391h635v-260h-930zM500 1577l199 264h284l-286 -264h-197z" />
<glyph unicode="&#xca;" d="M168 0v1493h930v-260h-635v-322h575v-260h-575v-391h635v-260h-930zM271 1588l221 264h309l223 -264h-178l-199 161l-198 -161h-178z" />
<glyph unicode="&#xcb;" d="M168 0v1493h930v-260h-635v-322h575v-260h-575v-391h635v-260h-930zM332 1636v186q0 30 30 30h176q30 0 30 -30v-186q0 -30 -30 -30h-176q-30 0 -30 30zM727 1636v186q0 30 30 30h176q30 0 30 -30v-186q0 -30 -30 -30h-176q-30 0 -30 30z" />
<glyph unicode="&#xcc;" d="M172 0v260h297v973h-297v260h889v-260h-297v-973h297v-260h-889zM283 1852h284l199 -264h-197z" />
<glyph unicode="&#xcd;" d="M172 0v260h297v973h-297v260h889v-260h-297v-973h297v-260h-889zM469 1588l199 264h284l-286 -264h-197z" />
<glyph unicode="&#xce;" d="M172 0v260h297v973h-297v260h889v-260h-297v-973h297v-260h-889zM240 1588l221 264h309l223 -264h-178l-199 161l-198 -161h-178z" />
<glyph unicode="&#xcf;" d="M172 0v260h297v973h-297v260h889v-260h-297v-973h297v-260h-889zM301 1636v186q0 30 30 30h176q30 0 30 -30v-186q0 -30 -30 -30h-176q-30 0 -30 30zM696 1636v186q0 30 30 30h176q30 0 30 -30v-186q0 -30 -30 -30h-176q-30 0 -30 30z" />
<glyph unicode="&#xd0;" d="M0 664v237h137v592h316q367 0 527 -174q161 -175 161 -572q0 -395 -161 -571t-527 -176h-316v664h-137zM432 266h80q174 0 248 110t74 372q0 260 -74 370q-73 109 -248 109h-80v-326h211v-237h-211v-398z" />
<glyph unicode="&#xd1;" d="M119 0v1493h317l416 -1085v1085h260v-1493h-315l-418 1085v-1085h-260zM268 1588v30q0 107 54 171q55 65 144 65q37 0 73 -12q38 -13 75 -37l60 -39q17 -11 41 -21q21 -8 35 -8q36 0 56 30q19 29 19 87h140q0 -8 -1 -15v-1q0 -1 -0.5 -5t-0.5 -11q0 -104 -53 -169 q-54 -65 -142 -65q-36 0 -72 11t-78 38l-54 34q-4 2 -12 7q-47 26 -73 26q-31 0 -51 -30q-20 -31 -20 -80v-6h-140z" />
<glyph unicode="&#xd2;" d="M92 745q0 383 133 580q132 195 391 195q261 0 393 -196t132 -579q0 -382 -132 -578t-393 -196q-259 0 -391 195q-133 197 -133 579zM283 1852h284l199 -264h-197zM399 747q0 -271 52 -390q52 -121 165 -121q114 0 166 121q52 119 52 389q0 269 -52 388q-52 121 -166 121 q-113 0 -165 -121t-52 -387z" />
<glyph unicode="&#xd3;" d="M92 745q0 383 133 580q132 195 391 195q261 0 393 -196t132 -579q0 -382 -132 -578t-393 -196q-259 0 -391 195q-133 197 -133 579zM399 747q0 -271 52 -390q52 -121 165 -121q114 0 166 121q52 119 52 389q0 269 -52 388q-52 121 -166 121q-113 0 -165 -121t-52 -387z M469 1588l199 264h284l-286 -264h-197z" />
<glyph unicode="&#xd4;" d="M92 745q0 383 133 580q132 195 391 195q261 0 393 -196t132 -579q0 -382 -132 -578t-393 -196q-259 0 -391 195q-133 197 -133 579zM240 1588l221 264h309l223 -264h-178l-199 161l-198 -161h-178zM399 747q0 -271 52 -390q52 -121 165 -121q114 0 166 121q52 119 52 389 q0 269 -52 388q-52 121 -166 121q-113 0 -165 -121t-52 -387z" />
<glyph unicode="&#xd5;" d="M92 745q0 383 133 580q132 195 391 195q261 0 393 -196t132 -579q0 -382 -132 -578t-393 -196q-259 0 -391 195q-133 197 -133 579zM268 1588v30q0 107 54 171q55 65 144 65q37 0 73 -12q38 -13 75 -37l60 -39q21 -13 41 -21q21 -8 35 -8q36 0 56 30q19 29 19 87h140 q0 -8 -1 -15q-1 -5 -1 -12q0 -109 -53 -174q-54 -65 -142 -65q-36 0 -72 11t-78 38l-54 34l-12 7q-49 26 -73 26q-31 0 -51 -30q-20 -31 -20 -80v-6h-140zM399 747q0 -271 52 -390q52 -121 165 -121q114 0 166 121q52 119 52 389q0 269 -52 388q-52 121 -166 121 q-113 0 -165 -121t-52 -387z" />
<glyph unicode="&#xd6;" d="M92 745q0 383 133 580q132 195 391 195q261 0 393 -196t132 -579q0 -382 -132 -578t-393 -196q-259 0 -391 195q-133 197 -133 579zM301 1636v186q0 30 30 30h176q30 0 30 -30v-186q0 -30 -30 -30h-176q-30 0 -30 30zM399 747q0 -271 52 -390q52 -121 165 -121 q114 0 166 121q52 119 52 389q0 269 -52 388q-52 121 -166 121q-113 0 -165 -121t-52 -387zM696 1636v186q0 30 30 30h176q30 0 30 -30v-186q0 -30 -30 -30h-176q-30 0 -30 30z" />
<glyph unicode="&#xd7;" d="M119 313l330 330l-330 328l168 168l327 -328l330 328l168 -168l-330 -328l330 -330l-168 -166l-330 328l-327 -328z" />
<glyph unicode="&#xd8;" d="M-6 51l168 238q-35 92 -52 202q-18 118 -18 252q0 385 133 581t391 196q105 0 186 -31q84 -32 144 -92l113 162l162 -115l-158 -223q40 -97 59 -213q19 -117 19 -263q0 -382 -132 -578t-394 -196q-103 0 -190 34q-85 33 -149 99l-120 -167zM399 629l373 524 q-26 51 -65 77q-38 25 -90 25q-113 0 -165 -120q-53 -121 -53 -379v-127zM451 354q22 -55 66 -87q43 -31 101 -31q111 0 163 121q53 123 53 424l-1 23q-1 18 -1.5 35.5t-2.5 48.5z" />
<glyph unicode="&#xd9;" d="M106 551v942h295v-1016q0 -113 57 -176t158 -63t158 63t57 176v1016h295v-942q0 -305 -121 -442q-121 -138 -389 -138q-266 0 -388 138q-122 139 -122 442zM283 1852h284l199 -264h-197z" />
<glyph unicode="&#xda;" d="M106 551v942h295v-1016q0 -113 57 -176t158 -63t158 63t57 176v1016h295v-942q0 -305 -121 -442q-121 -138 -389 -138q-266 0 -388 138q-122 139 -122 442zM469 1588l199 264h284l-286 -264h-197z" />
<glyph unicode="&#xdb;" d="M106 551v942h295v-1016q0 -113 57 -176t158 -63t158 63t57 176v1016h295v-942q0 -305 -121 -442q-121 -138 -389 -138q-266 0 -388 138q-122 139 -122 442zM240 1588l221 264h309l223 -264h-178l-199 161l-198 -161h-178z" />
<glyph unicode="&#xdc;" d="M106 551v942h295v-1016q0 -113 57 -176t158 -63t158 63t57 176v1016h295v-942q0 -305 -121 -442q-121 -138 -389 -138q-266 0 -388 138q-122 139 -122 442zM301 1636v186q0 30 30 30h176q30 0 30 -30v-186q0 -30 -30 -30h-176q-30 0 -30 30zM696 1636v186q0 30 30 30h176 q30 0 30 -30v-186q0 -30 -30 -30h-176q-30 0 -30 30z" />
<glyph unicode="&#xdd;" d="M8 1493h318l290 -600l291 600h318l-461 -905v-588h-295v588zM469 1588l199 264h284l-286 -264h-197z" />
<glyph unicode="&#xde;" d="M162 0v1493h295v-238h110q309 0 445 -109q135 -110 135 -355q0 -242 -137 -350q-137 -109 -443 -109h-110v-332h-295zM457 575h121q146 0 204 49t58 169q0 122 -58 171q-59 50 -204 50h-121v-439z" />
<glyph unicode="&#xdf;" d="M127 0v1126q0 212 121 321t346 109q228 0 334 -118t106 -365v-14q-126 -7 -188 -51q-66 -47 -66 -119q0 -41 26 -75t90 -86q4 -3 7 -5.5t5 -4t3.5 -2.5t2.5 -2l1 -1l97 -74q82 -63 122 -138q40 -77 40 -171q0 -168 -111 -263q-112 -96 -304 -96q-67 0 -126 12t-129 37 v250q56 -30 116 -47q58 -16 109 -16q76 0 118 34t42 87q0 75 -115 164l-16 12t-29 22l-86 68q-57 46 -89 112q-30 63 -30 141q0 125 74 211q72 83 211 116q-9 75 -58 111t-137 36q-99 0 -146 -50q-48 -51 -48 -149v-1122h-293z" />
<glyph unicode="&#xe0;" d="M95 354q0 197 127 290q128 93 393 93h203v49q0 71 -51 108q-50 36 -157 36q-99 0 -198 -26q-101 -27 -206 -85v250q98 41 197 59q108 20 225 20q253 0 369 -113q57 -55 84.5 -147.5t27.5 -243.5q0 -40 -2.5 -194.5t-2.5 -175.5q0 -41 2 -77q3 -36 7 -72q6 -41 14 -67 q9 -29 28 -58h-290q-18 30 -28 58q-9 28 -13 67q-55 -73 -142 -114q-83 -40 -188 -40q-185 0 -292 101t-107 282zM199 1673h282l283 -376h-197zM407 342q0 -78 45 -123t124 -45q114 0 178 88q64 86 64 244v20h-117q-165 0 -229 -42q-65 -42 -65 -142z" />
<glyph unicode="&#xe1;" d="M95 354q0 197 127 290q128 93 393 93h203v49q0 71 -51 108q-50 36 -157 36q-99 0 -198 -26q-101 -27 -206 -85v250q98 41 197 59q108 20 225 20q253 0 369 -113q57 -55 84.5 -147.5t27.5 -243.5q0 -40 -2.5 -194.5t-2.5 -175.5q0 -41 2 -77q3 -36 7 -72q6 -41 14 -67 q9 -29 28 -58h-290q-18 30 -28 58q-9 28 -13 67q-55 -73 -142 -114q-83 -40 -188 -40q-185 0 -292 101t-107 282zM407 342q0 -78 45 -123t124 -45q114 0 178 88q64 86 64 244v20h-117q-165 0 -229 -42q-65 -42 -65 -142zM469 1297l283 376h282l-368 -376h-197z" />
<glyph unicode="&#xe2;" d="M95 354q0 197 127 290q128 93 393 93h203v49q0 71 -51 108q-50 36 -157 36q-99 0 -198 -26q-101 -27 -206 -85v250q98 41 197 59q108 20 225 20q253 0 369 -113q57 -55 84.5 -147.5t27.5 -243.5q0 -40 -2.5 -194.5t-2.5 -175.5q0 -41 2 -77q3 -36 7 -72q6 -41 14 -67 q9 -29 28 -58h-290q-18 30 -28 58q-9 28 -13 67q-55 -73 -142 -114q-83 -40 -188 -40q-185 0 -292 101t-107 282zM240 1296l256 376h241l256 -376h-178l-199 225l-198 -225h-178zM407 342q0 -78 45 -123t124 -45q114 0 178 88q64 86 64 244v20h-117q-165 0 -229 -42 q-65 -42 -65 -142z" />
<glyph unicode="&#xe3;" d="M95 354q0 197 127 290q128 93 393 93h203v49q0 71 -51 108q-50 36 -157 36q-99 0 -198 -26q-101 -27 -206 -85v250q98 41 197 59q108 20 225 20q253 0 369 -113q57 -55 84.5 -147.5t27.5 -243.5q0 -40 -2.5 -194.5t-2.5 -175.5q0 -41 2 -77q3 -36 7 -72q6 -41 14 -67 q9 -29 28 -58h-290q-18 30 -28 58q-9 28 -13 67q-55 -73 -142 -114q-83 -40 -188 -40q-185 0 -292 101t-107 282zM268 1319q0 137 52 211q51 73 145 73q37 0 72 -13q32 -12 77 -44l62 -43q23 -16 40 -23q19 -8 35 -8q35 0 55 32q19 31 19 89v8h140q0 -137 -51 -210 q-51 -74 -146 -74q-36 0 -69 12t-81 45l-67 45q-44 29 -72 29q-33 0 -52 -31t-19 -90v-8h-140zM407 342q0 -78 45 -123t124 -45q114 0 178 88q64 86 64 244v20h-117q-165 0 -229 -42q-65 -42 -65 -142z" />
<glyph unicode="&#xe4;" d="M95 354q0 197 127 290q128 93 393 93h203v49q0 71 -51 108q-50 36 -157 36q-99 0 -198 -26q-101 -27 -206 -85v250q98 41 197 59q108 20 225 20q253 0 369 -113q57 -55 84.5 -147.5t27.5 -243.5q0 -40 -2.5 -194.5t-2.5 -175.5q0 -41 2 -77q3 -36 7 -72q6 -41 14 -67 q9 -29 28 -58h-290q-18 30 -28 58q-9 28 -13 67q-55 -73 -142 -114q-83 -40 -188 -40q-185 0 -292 101t-107 282zM301 1389v186q0 30 30 30h176q30 0 30 -30v-186q0 -30 -30 -30h-176q-30 0 -30 30zM407 342q0 -78 45 -123t124 -45q114 0 178 88q64 86 64 244v20h-117 q-165 0 -229 -42q-65 -42 -65 -142zM696 1389v186q0 30 30 30h176q30 0 30 -30v-186q0 -30 -30 -30h-176q-30 0 -30 30z" />
<glyph unicode="&#xe5;" d="M95 354q0 197 127 290q128 93 393 93h203v49q0 71 -51 108q-50 36 -157 36q-99 0 -198 -26q-101 -27 -206 -85v250q98 41 197 59q108 20 225 20q253 0 369 -113q57 -55 84.5 -147.5t27.5 -243.5q0 -40 -2.5 -194.5t-2.5 -175.5q0 -41 2 -77q3 -36 7 -72q6 -41 14 -67 q9 -29 28 -58h-290q-18 30 -28 58q-9 28 -13 67q-55 -73 -142 -114q-83 -40 -188 -40q-185 0 -292 101t-107 282zM332 1535q0 119 83 202q82 82 201 82q120 0 202 -82q83 -83 83 -203q0 -117 -82 -201q-84 -84 -202 -84q-120 0 -203 83q-82 82 -82 203zM407 342 q0 -78 45 -123t124 -45q114 0 178 88q64 86 64 244v20h-117q-165 0 -229 -42q-65 -42 -65 -142zM485 1534q0 -55 38 -93t94 -38q54 0 93 39q38 38 38 92t-39 93q-40 38 -93 38q-54 0 -92 -38q-39 -39 -39 -93z" />
<glyph unicode="&#xe6;" d="M14 326q0 185 101 277q100 91 305 91h76v51q0 93 -39 140t-114 47q-59 0 -125 -27q-68 -28 -142 -82v246q75 40 144 59t137 19q96 0 158 -31t97 -96q28 61 95 94q66 33 158 33q175 0 249 -119q74 -120 74 -422v-127h-451q0 -143 50 -219t145 -76q58 0 120 30t119 87v-244 q-50 -44 -112 -65q-63 -21 -143 -21q-106 0 -181 42t-117 122q-40 -83 -106 -124q-65 -40 -166 -40q-158 0 -245 92q-87 93 -87 263zM240 329q0 -69 32 -107t93 -38q63 0 94 43q30 43 30 131v125h-73q-86 0 -131 -39t-45 -115zM737 690h226v23q0 126 -25 172q-26 47 -88 47 t-88 -47q-25 -46 -25 -172v-23z" />
<glyph unicode="&#xe7;" d="M168 559q0 277 147 434q147 156 404 156q92 0 176 -21q83 -21 166 -65v-268q-66 57 -140 85q-76 29 -160 29q-142 0 -219 -91q-77 -92 -77 -259t77 -258q76 -90 220 -90q84 0 159 29q76 29 140 86v-269q-72 -42 -159 -64q-50 -12 -101 -18q39 -46 63 -90q27 -51 27 -106 q0 -89 -62 -135q-61 -45 -186 -45q-51 0 -100 6q-10 1 -104 20v156q48 -18 87 -26q42 -9 78 -9q57 0 91 23q32 23 32 61q0 28 -21 69q-20 38 -47 74q-216 16 -345 154q-146 157 -146 432z" />
<glyph unicode="&#xe8;" d="M92 554q0 274 143 434q143 159 392 159q248 0 385 -147t137 -416v-119h-759q2 -133 78 -197q77 -65 229 -65q101 0 200 29t205 92v-269q-102 -42 -208 -63t-219 -21q-286 0 -434 151q-149 152 -149 432zM238 1673h282l283 -376h-197zM393 684l461 1q-2 117 -59 176 t-168 59q-103 0 -163 -61q-60 -62 -71 -175z" />
<glyph unicode="&#xe9;" d="M82 554q0 274 143 434q142 159 392 159q248 0 385 -147t137 -416v-119h-759q2 -133 78 -197q77 -65 229 -65q101 0 200 29t205 92v-269q-102 -42 -208 -63t-219 -21q-286 0 -434 151q-149 152 -149 432zM383 684l461 1q-2 117 -59 176t-168 59q-103 0 -163 -61 q-60 -62 -71 -175zM498 1296l283 376h282l-368 -376h-197z" />
<glyph unicode="&#xea;" d="M82 554q0 274 143 434q142 159 392 159q248 0 385 -147t137 -416v-119h-759q2 -133 78 -197q77 -65 229 -65q101 0 200 29t205 92v-269q-102 -42 -208 -63t-219 -21q-286 0 -434 151q-149 152 -149 432zM269 1297l256 376h241l256 -376h-178l-199 225l-198 -225h-178z M383 684l461 1q-2 117 -59 176t-168 59q-103 0 -163 -61q-60 -62 -71 -175z" />
<glyph unicode="&#xeb;" d="M82 554q0 274 143 434q142 159 392 159q248 0 385 -147t137 -416v-119h-759q2 -133 78 -197q77 -65 229 -65q101 0 200 29t205 92v-269q-102 -42 -208 -63t-219 -21q-286 0 -434 151q-149 152 -149 432zM330 1379v186q0 30 30 30h176q30 0 30 -30v-186q0 -30 -30 -30 h-176q-30 0 -30 30zM383 684l461 1q-2 117 -59 176t-168 59q-103 0 -163 -61q-60 -62 -71 -175zM725 1379v186q0 30 30 30h176q30 0 30 -30v-186q0 -30 -30 -30h-176q-30 0 -30 30z" />
<glyph unicode="&#xec;" d="M159 1683h282l283 -376h-197zM184 895v225h540v-665q0 -131 41 -187q40 -55 139 -55h234v-225h-316q-208 0 -300 108q-91 107 -91 359v440h-247z" />
<glyph unicode="&#xed;" d="M184 895v225h520v-665q0 -131 41 -187q40 -55 139 -55h234v-225h-316q-208 0 -300 108q-91 107 -91 359v440h-227zM411 1297l283 376h282l-368 -376h-197z" />
<glyph unicode="&#xee;" d="M184 895v225h530v-665q0 -131 41 -187q40 -55 139 -55h234v-225h-316q-208 0 -300 108q-91 107 -91 359v440h-237zM184 1297l256 376h241l256 -376h-178l-199 225l-198 -225h-178z" />
<glyph unicode="&#xef;" d="M184 895v225h530v-665q0 -131 41 -187q40 -55 139 -55h234v-225h-316q-208 0 -300 108q-91 107 -91 359v440h-237zM231 1350v186q0 30 30 30h176q30 0 30 -30v-186q0 -30 -30 -30h-176q-30 0 -30 30zM626 1350v186q0 30 30 30h176q30 0 30 -30v-186q0 -30 -30 -30h-176 q-30 0 -30 30z" />
<glyph unicode="&#xf0;" d="M98 534q0 240 129 379q130 140 347 140q42 0 73 -6q32 -6 58 -19l-160 219l-312 -119l-55 117l283 109l-158 202h293l92 -116l297 127l66 -123l-277 -117l166 -227q99 -135 143 -263q43 -126 43 -278q0 -277 -135 -432q-136 -156 -378 -156q-239 0 -377 153t-138 410z M389 535q0 -147 60 -237q59 -89 164 -89q109 0 166 91q57 90 57 256q0 58 -6 101q-6 45 -19 103q-51 28 -98 41q-51 14 -96 14q-107 0 -168 -72q-60 -71 -60 -208z" />
<glyph unicode="&#xf1;" d="M172 0v1120h262l29 -168q32 93 106 144q75 51 182 51q158 0 239 -105q81 -106 81 -315v-727h-291v682q0 123 -34 175t-110 52q-82 0 -127 -71q-46 -71 -46 -197v-641h-291zM268 1299q0 137 52 211q51 73 145 73q37 0 72 -13q32 -12 77 -44l62 -43q23 -16 40 -23 q19 -8 35 -8q35 0 55 32q19 31 19 89v8h140q0 -137 -51 -210q-51 -74 -146 -74q-36 0 -69 12t-81 45l-67 45q-44 29 -72 29q-33 0 -52 -31t-19 -90v-8h-140z" />
<glyph unicode="&#xf2;" d="M98 560q0 271 140 429t378 158q240 0 379 -157q140 -158 140 -431q0 -270 -139 -429q-140 -159 -379 -159t-379 158t-140 431zM199 1596h282l283 -299h-197zM391 560q0 -166 60 -259q60 -92 165 -92q106 0 166 92q60 93 60 259q0 164 -60 257q-60 92 -166 92 q-105 0 -165 -92q-60 -93 -60 -257z" />
<glyph unicode="&#xf3;" d="M98 560q0 271 140 429t378 158q240 0 379 -157q140 -158 140 -431q0 -270 -139 -429q-140 -159 -379 -159t-379 158t-140 431zM391 560q0 -166 60 -259q60 -92 165 -92q106 0 166 92q60 93 60 259q0 164 -60 257q-60 92 -166 92q-105 0 -165 -92q-60 -93 -60 -257z M469 1297l283 299h282l-368 -299h-197z" />
<glyph unicode="&#xf4;" d="M98 560q0 271 140 429t378 158q240 0 379 -157q140 -158 140 -431q0 -270 -139 -429q-140 -159 -379 -159t-379 158t-140 431zM240 1297l256 299h241l256 -299h-178l-199 147l-198 -147h-178zM391 560q0 -166 60 -259q60 -92 165 -92q106 0 166 92q60 93 60 259 q0 164 -60 257q-60 92 -166 92q-105 0 -165 -92q-60 -93 -60 -257z" />
<glyph unicode="&#xf5;" d="M98 560q0 271 140 429t378 158q240 0 379 -157q140 -158 140 -431q0 -270 -139 -429q-140 -159 -379 -159t-379 158t-140 431zM268 1299v33q0 114 54 183t143 69q37 0 72 -13q29 -11 77 -45l62 -43q20 -14 40 -22q19 -8 35 -8q36 0 55 31t19 89v9h140q0 -10 -1 -17 t-1 -14q0 -117 -53 -185q-53 -69 -142 -69q-33 0 -67 12q-35 12 -83 45l-67 45q-43 29 -72 29q-31 0 -51 -32t-20 -89v-8h-140zM391 560q0 -166 60 -259q60 -92 165 -92q106 0 166 92q60 93 60 259q0 164 -60 257q-60 92 -166 92q-105 0 -165 -92q-60 -93 -60 -257z" />
<glyph unicode="&#xf6;" d="M98 560q0 271 140 429t378 158q240 0 379 -157q140 -158 140 -431q0 -270 -139 -429q-140 -159 -379 -159t-379 158t-140 431zM301 1377v186q0 30 30 30h176q30 0 30 -30v-186q0 -30 -30 -30h-176q-30 0 -30 30zM391 560q0 -166 60 -259q60 -92 165 -92q106 0 166 92 q60 93 60 259q0 164 -60 257q-60 92 -166 92q-105 0 -165 -92q-60 -93 -60 -257zM696 1377v186q0 30 30 30h176q30 0 30 -30v-186q0 -30 -30 -30h-176q-30 0 -30 30z" />
<glyph unicode="&#xf7;" d="M66 524v238h1099v-238h-1099zM461 116v249q0 30 30 30h249q30 0 30 -30v-249q0 -30 -30 -30h-249q-30 0 -30 30zM461 919v249q0 30 30 30h249q30 0 30 -30v-249q0 -30 -30 -30h-249q-30 0 -30 30z" />
<glyph unicode="&#xf8;" d="M25 2l163 197q-44 72 -67 162t-23 198q0 272 140 430t377 158q89 0 160 -21t140 -67l148 176l139 -121l-160 -188q47 -76 70 -168q23 -90 23 -201q0 -268 -139 -427q-140 -159 -376 -159q-85 0 -162 23q-74 22 -143 67l-151 -178zM391 559q0 -26 2 -60q2 -28 6 -50 l346 411q-25 25 -57 37t-70 12q-106 0 -166 -92q-61 -92 -61 -258zM483 262q31 -26 64 -40q32 -13 70 -13q106 0 165 93q60 94 60 251q0 36 -2 64q-2 25 -9 58z" />
<glyph unicode="&#xf9;" d="M160 391v729h293v-684q0 -121 34 -173t111 -52q82 0 126 70q44 71 44 196v643h293v-1120h-264l-29 166q-32 -93 -105 -144q-75 -51 -182 -51q-157 0 -239 106t-82 314zM199 1646h282l283 -376h-197z" />
<glyph unicode="&#xfa;" d="M160 391v729h293v-684q0 -121 34 -173t111 -52q82 0 126 70q44 71 44 196v643h293v-1120h-264l-29 166q-32 -93 -105 -144q-75 -51 -182 -51q-157 0 -239 106t-82 314zM469 1270l283 376h282l-368 -376h-197z" />
<glyph unicode="&#xfb;" d="M160 391v729h293v-684q0 -121 34 -173t111 -52q82 0 126 70q44 71 44 196v643h293v-1120h-264l-29 166q-32 -93 -105 -144q-75 -51 -182 -51q-157 0 -239 106t-82 314zM240 1270l256 376h241l256 -376h-178l-199 225l-198 -225h-178z" />
<glyph unicode="&#xfc;" d="M160 391v729h293v-684q0 -121 34 -173t111 -52q82 0 126 70q44 71 44 196v643h293v-1120h-264l-29 166q-32 -93 -105 -144q-75 -51 -182 -51q-157 0 -239 106t-82 314zM301 1350v186q0 30 30 30h176q30 0 30 -30v-186q0 -30 -30 -30h-176q-30 0 -30 30zM696 1350v186 q0 30 30 30h176q30 0 30 -30v-186q0 -30 -30 -30h-176q-30 0 -30 30z" />
<glyph unicode="&#xfd;" d="M69 1120h308l256 -727l245 727h308l-465 -1241q-60 -159 -141 -231q-82 -72 -201 -72h-242v223h119q92 0 132 30q46 35 85 142l22 60zM479 1270l283 376h282l-368 -376h-197z" />
<glyph unicode="&#xfe;" d="M150 -426v1982h292v-604q46 97 121 146q74 49 177 49q190 0 297 -153q106 -153 106 -436q0 -284 -107 -435q-108 -152 -301 -152q-97 0 -168 47q-75 50 -125 140v-584h-292zM442 561q0 -163 55 -254q56 -92 150 -92q95 0 149 92q54 91 54 254t-54 254q-54 92 -149 92 q-94 0 -150 -92q-55 -91 -55 -254z" />
<glyph unicode="&#xff;" d="M69 1120h308l256 -727l245 727h308l-465 -1241q-60 -159 -141 -231q-82 -72 -201 -72h-242v223h119q92 0 132 30q46 35 85 142l22 60zM311 1350v186q0 30 30 30h176q30 0 30 -30v-186q0 -30 -30 -30h-176q-30 0 -30 30zM706 1350v186q0 30 30 30h176q30 0 30 -30v-186 q0 -30 -30 -30h-176q-30 0 -30 30z" />
<glyph unicode="&#x152;" d="M68 745q0 437 121 592q121 156 444 156h573v-260h-332v-311h302v-260h-302v-402h343v-260h-584q-324 0 -444 156q-121 156 -121 589zM354 745q0 -308 46 -398q44 -87 169 -87h52v973h-52q-125 0 -169 -89q-46 -92 -46 -399z" />
<glyph unicode="&#x153;" d="M14 560q0 313 85 451q84 136 278 136q95 0 156 -29q62 -29 104 -96q29 60 93 93q64 32 158 32q176 0 249 -119q73 -118 73 -422v-127h-450q0 -143 50 -219q49 -76 145 -76q57 0 119 30t120 87v-244q-50 -44 -111 -65t-144 -21q-102 0 -172 37q-71 37 -118 111 q-44 -78 -109 -112q-68 -36 -166 -36q-190 0 -275 138t-85 451zM248 560q0 -239 31 -310q29 -66 106 -66t105 67q30 72 30 307q0 238 -30 310q-28 66 -106 66q-77 0 -105 -66q-31 -70 -31 -308zM760 690h225v35q0 116 -25 162q-25 47 -87 47q-63 0 -88 -48t-25 -173v-23z " />
<glyph unicode="&#x178;" d="M8 1493h318l290 -600l291 600h318l-461 -905v-588h-295v588zM301 1636v186q0 30 30 30h176q30 0 30 -30v-186q0 -30 -30 -30h-176q-30 0 -30 30zM696 1636v186q0 30 30 30h176q30 0 30 -30v-186q0 -30 -30 -30h-176q-30 0 -30 30z" />
<glyph unicode="&#x2c6;" d="M240 1262l256 376h241l256 -376h-178l-199 225l-198 -225h-178z" />
<glyph unicode="&#x2dc;" d="M268 1309q0 137 52 211q51 73 145 73q37 0 72 -13q32 -12 77 -44l62 -43q23 -16 40 -23q19 -8 35 -8q35 0 55 32q19 31 19 89v8h140q0 -137 -51 -210q-51 -74 -146 -74q-36 0 -69 12t-81 45l-67 45q-44 29 -72 29q-33 0 -52 -31t-19 -90v-8h-140z" />
<glyph unicode="&#x2000;" horiz-adv-x="990" />
<glyph unicode="&#x2001;" horiz-adv-x="1980" />
<glyph unicode="&#x2002;" horiz-adv-x="990" />
<glyph unicode="&#x2003;" horiz-adv-x="1980" />
<glyph unicode="&#x2004;" horiz-adv-x="660" />
<glyph unicode="&#x2005;" horiz-adv-x="495" />
<glyph unicode="&#x2006;" horiz-adv-x="330" />
<glyph unicode="&#x2007;" horiz-adv-x="330" />
<glyph unicode="&#x2008;" horiz-adv-x="247" />
<glyph unicode="&#x2009;" horiz-adv-x="396" />
<glyph unicode="&#x200a;" horiz-adv-x="110" />
<glyph unicode="&#x2010;" d="M221 455v291h791v-291h-791z" />
<glyph unicode="&#x2011;" d="M221 455v291h791v-291h-791z" />
<glyph unicode="&#x2012;" d="M221 455v291h791v-291h-791z" />
<glyph unicode="&#x2013;" d="M0 444v246h1233v-246h-1233z" />
<glyph unicode="&#x2014;" d="M0 444v246h1233v-246h-1233z" />
<glyph unicode="&#x2018;" d="M432 903v271l197 382h215l-99 -382v-271h-313z" />
<glyph unicode="&#x2019;" d="M432 903l98 383v270h314v-270l-197 -383h-215z" />
<glyph unicode="&#x201a;" d="M362 -287l99 383v271h313v-271l-196 -383h-216z" />
<glyph unicode="&#x201c;" d="M152 903v271l196 382h215l-98 -382v-271h-313zM672 903v271l196 382h213l-96 -382v-271h-313z" />
<glyph unicode="&#x201d;" d="M150 903l98 383v270h313v-270l-196 -383h-215zM670 903l98 383v270h313v-270l-196 -383h-215z" />
<glyph unicode="&#x201e;" d="M150 -287l98 383v271h313v-271l-196 -383h-215zM670 -287l98 383v271h313v-271l-196 -383h-215z" />
<glyph unicode="&#x2022;" d="M256 762q0 74 28 140t78 114q52 51 118 78q63 26 137 26q72 0 138 -27q65 -27 115 -77q52 -52 80 -117q27 -65 27 -137q0 -74 -27 -138q-28 -66 -80 -118t-116 -79q-66 -28 -140 -28q-72 0 -138 28q-68 29 -116 79t-77 117q-27 64 -27 139z" />
<glyph unicode="&#x2026;" d="M57 30v307q0 30 30 30h235q30 0 30 -30v-307q0 -30 -30 -30h-235q-30 0 -30 30zM469 30v307q0 30 30 30h235q30 0 30 -30v-307q0 -30 -30 -30h-235q-30 0 -30 30zM881 30v307q0 30 30 30h235q30 0 30 -30v-307q0 -30 -30 -30h-235q-30 0 -30 30z" />
<glyph unicode="&#x202f;" horiz-adv-x="396" />
<glyph unicode="&#x2039;" d="M256 535v131l469 393v-238l-276 -221l276 -221v-238z" />
<glyph unicode="&#x203a;" d="M510 141v238l278 221l-278 221v238l469 -393v-131z" />
<glyph unicode="&#x205f;" horiz-adv-x="495" />
<glyph unicode="&#x20ac;" d="M6 483l84 187h96q-1 9 -1 30l-1 3v13.5v28.5v28t0.5 13t0.5 4q0 21 1 31h-180l84 189h119q43 248 190 380q145 130 379 130q84 0 158 -18t141 -54v-328q-73 78 -144 114t-147 36q-107 0 -177 -65q-69 -65 -101 -195h442l-84 -189h-382q-2 -22 -2 -34v-12q-1 -12 -1 -33 v-20t0.5 -11t0.5 -5v-3q0 -22 1 -33h316l-84 -187h-207q24 -126 96 -194t179 -68q79 0 150 36t144 114v-328q-66 -36 -139 -54q-74 -18 -159 -18q-234 0 -380 131q-147 132 -190 381h-203z" />
<glyph unicode="&#x2122;" d="M0 1360v133h438v-133h-141v-445h-156v445h-141zM522 915v578h207l100 -227l89 227h208v-578h-153v437l-107 -256h-75l-117 256v-437h-152z" />
<glyph unicode="&#x25fc;" horiz-adv-x="1120" d="M0 0v1120h1120v-1120h-1120z" />
</font>
</defs>
</svg>
